<svg xmlns="http://www.w3.org/2000/svg" xmlns:xlink="http://www.w3.org/1999/xlink" width="600" zoomAndPan="magnify" viewBox="0 0 450 449.999984" height="600" preserveAspectRatio="xMidYMid meet" version="1.0"><defs><clipPath id="4c58183d30"><path d="M 297 88.75 L 373 88.75 L 373 179 L 297 179 Z M 297 88.75 " clip-rule="nonzero"/></clipPath></defs><path fill="#ffffff" d="M 159.132812 181.203125 L 187.667969 181.203125 L 187.667969 209.046875 L 159.132812 209.046875 Z M 187.746094 209.046875 L 216.277344 209.046875 L 216.277344 181.203125 L 187.765625 181.203125 Z M 130.523438 237.132812 L 159.054688 237.132812 L 159.054688 209.28125 L 130.503906 209.28125 Z M 187.746094 237.132812 L 216.277344 237.132812 L 216.277344 209.28125 L 187.753906 209.28125 Z M 216.355469 237.132812 L 244.890625 237.132812 L 244.890625 209.28125 L 216.386719 209.28125 Z M 130.464844 265.003906 L 130.464844 292.855469 L 158.996094 292.855469 L 158.996094 237.371094 L 130.492188 237.371094 Z M 159.074219 265.003906 L 159.074219 292.855469 L 187.65625 292.855469 L 187.65625 237.371094 L 159.125 237.371094 Z M 216.296875 265.003906 L 216.296875 292.855469 L 244.828125 292.855469 L 244.828125 237.371094 L 216.375 237.371094 Z M 244.910156 237.378906 L 244.910156 292.867188 L 273.441406 292.867188 L 273.441406 237.371094 Z M 101.871094 292.855469 L 130.394531 292.855469 L 130.394531 265.003906 L 101.871094 265.003906 Z M 101.871094 292.855469 " fill-opacity="1" fill-rule="nonzero"/><path fill="#a6a6a6" d="M 130.394531 237.371094 L 130.394531 265.210938 L 101.871094 265.210938 L 101.871094 237.371094 Z M 187.753906 264.996094 L 187.753906 292.847656 L 216.277344 292.847656 L 216.277344 265.003906 Z M 159.144531 209.273438 L 159.144531 237.132812 L 187.65625 237.132812 L 187.65625 209.28125 Z M 159.144531 209.273438 " fill-opacity="1" fill-rule="nonzero"/><path fill="#a6a6a6" d="M 170.480469 121.023438 L 170.480469 148.863281 L 141.976562 148.863281 L 141.976562 121.023438 Z M 102.515625 150.621094 L 105.867188 154.113281 L 102.769531 159.5 L 97.9375 158.511719 C 95.546875 160.957031 92.695312 162.601562 89.382812 163.445312 L 88 168.238281 L 81.796875 168.238281 L 80.179688 163.367188 C 76.953125 162.511719 74.175781 160.894531 71.839844 158.511719 L 67.007812 159.5 L 63.910156 154.113281 L 67.261719 150.628906 C 66.8125 149.015625 66.585938 147.371094 66.582031 145.695312 C 66.582031 144.074219 66.789062 142.480469 67.214844 140.910156 L 63.769531 136.964844 L 66.929688 131.617188 L 71.800781 132.859375 C 74.171875 130.429688 77 128.785156 80.285156 127.929688 L 81.667969 123.152344 L 87.882812 123.152344 L 89.441406 127.917969 C 92.738281 128.765625 95.574219 130.410156 97.945312 132.851562 L 102.722656 131.628906 L 105.878906 136.976562 L 102.515625 140.761719 C 103.425781 144.050781 103.425781 147.339844 102.515625 150.628906 Z M 95.015625 145.597656 C 95.011719 144.929688 94.945312 144.269531 94.8125 143.613281 C 94.675781 142.957031 94.480469 142.320312 94.222656 141.707031 C 93.964844 141.089844 93.648438 140.503906 93.273438 139.949219 C 92.902344 139.394531 92.476562 138.882812 92.003906 138.410156 C 91.527344 137.941406 91.011719 137.519531 90.453125 137.152344 C 89.898438 136.78125 89.308594 136.472656 88.691406 136.21875 C 88.070312 135.964844 87.433594 135.773438 86.777344 135.644531 C 86.121094 135.515625 85.460938 135.453125 84.792969 135.457031 C 84.125 135.457031 83.460938 135.523438 82.804688 135.65625 C 82.152344 135.789062 81.515625 135.984375 80.898438 136.242188 C 80.28125 136.5 79.695312 136.816406 79.140625 137.1875 C 78.585938 137.5625 78.074219 137.984375 77.601562 138.457031 C 77.128906 138.933594 76.707031 139.449219 76.339844 140.003906 C 75.96875 140.5625 75.65625 141.148438 75.402344 141.765625 C 75.148438 142.382812 74.953125 143.019531 74.824219 143.675781 C 74.695312 144.332031 74.632812 144.996094 74.632812 145.664062 C 74.632812 146.332031 74.699219 146.992188 74.832031 147.648438 C 74.964844 148.304688 75.15625 148.941406 75.414062 149.558594 C 75.671875 150.175781 75.984375 150.761719 76.355469 151.316406 C 76.730469 151.875 77.152344 152.386719 77.625 152.859375 C 78.097656 153.332031 78.613281 153.753906 79.167969 154.125 C 79.722656 154.496094 80.3125 154.808594 80.929688 155.066406 C 81.546875 155.320312 82.183594 155.511719 82.839844 155.644531 C 83.492188 155.773438 84.15625 155.839844 84.824219 155.839844 C 85.496094 155.839844 86.160156 155.773438 86.816406 155.640625 C 87.476562 155.507812 88.113281 155.3125 88.734375 155.054688 C 89.355469 154.796875 89.941406 154.480469 90.5 154.109375 C 91.058594 153.734375 91.574219 153.308594 92.046875 152.832031 C 92.519531 152.359375 92.941406 151.839844 93.3125 151.28125 C 93.683594 150.722656 93.996094 150.132812 94.25 149.511719 C 94.507812 148.890625 94.699219 148.25 94.828125 147.59375 C 94.957031 146.933594 95.019531 146.269531 95.015625 145.597656 Z M 95.015625 145.597656 " fill-opacity="1" fill-rule="nonzero"/><path fill="#ffffff" d="M 431.382812 337.175781 L 421.378906 343.527344 L 414.75 334.222656 L 424.753906 327.871094 Z M 431.382812 337.175781 " fill-opacity="1" fill-rule="nonzero"/><path fill="#000000" d="M 421.378906 343.894531 C 421.25 343.894531 421.148438 343.84375 421.074219 343.734375 L 414.453125 334.410156 C 414.390625 334.328125 414.367188 334.230469 414.386719 334.125 C 414.40625 334.019531 414.460938 333.941406 414.554688 333.886719 L 424.558594 327.542969 C 424.640625 327.488281 424.730469 327.472656 424.828125 327.492188 C 424.925781 327.511719 425.003906 327.5625 425.058594 327.644531 L 431.679688 336.945312 C 431.738281 337.03125 431.757812 337.125 431.738281 337.230469 C 431.71875 337.332031 431.667969 337.410156 431.582031 337.46875 L 421.578125 343.8125 C 421.519531 343.859375 421.453125 343.886719 421.378906 343.894531 Z M 415.28125 334.324219 L 421.480469 343.023438 L 430.851562 337.105469 L 424.65625 328.402344 Z M 415.28125 334.324219 " fill-opacity="1" fill-rule="nonzero"/><path fill="#a36357" d="M 78.066406 270.972656 C 74.898438 269.988281 72.925781 264.917969 72.925781 264.917969 C 73.351562 263.121094 74.179688 260.96875 74.898438 257.871094 C 74.21875 256.886719 71.941406 253.214844 73.023438 251.28125 C 73.3125 250.859375 73.691406 250.550781 74.160156 250.347656 C 74.628906 250.144531 75.117188 250.082031 75.621094 250.15625 L 76.992188 242.441406 L 94.878906 246.507812 L 94.878906 246.890625 C 94.964844 247.425781 96.851562 259.953125 91.679688 264.34375 C 89.914062 265.851562 87.566406 266.226562 84.6875 265.449219 L 84.597656 268.410156 C 84.597656 268.410156 81.234375 271.941406 78.066406 270.972656 Z M 78.066406 270.972656 " fill-opacity="1" fill-rule="nonzero"/><path fill="#000000" d="M 73.171875 241.394531 C 73.085938 241.347656 73 241.296875 72.917969 241.238281 C 72.484375 240.960938 72.070312 240.664062 71.671875 240.339844 C 69.839844 238.890625 67.117188 236.097656 68.457031 233.097656 C 70.429688 228.738281 76.644531 228.550781 77.722656 229.152344 C 79.367188 230.078125 80.296875 230.820312 80.859375 235.199219 C 80.917969 235.671875 80.96875 236.1875 81.027344 236.757812 C 81.027344 236.847656 81.027344 236.9375 81.027344 237.035156 C 82.925781 236.792969 84.820312 236.816406 86.710938 237.113281 C 90.242188 237.824219 99.535156 241.828125 95.027344 248.835938 C 93.339844 249.203125 91.644531 249.277344 89.933594 249.066406 C 88.222656 248.851562 86.59375 248.359375 85.050781 247.589844 C 85.050781 247.589844 83.234375 246.515625 82.832031 248.933594 C 82.390625 251.015625 81.800781 253.054688 81.066406 255.050781 C 81.066406 255.050781 79.308594 255.238281 78.453125 252.890625 C 77.59375 250.542969 73.203125 250.550781 72.917969 253.511719 C 72.917969 253.511719 69.542969 248.253906 73.171875 241.394531 Z M 73.171875 241.394531 " fill-opacity="1" fill-rule="nonzero"/><path fill="#ffffff" d="M 81.628906 237.210938 L 81.15625 237.332031 C 78.1875 238.164062 75.558594 239.605469 73.261719 241.664062 L 72.945312 241.9375 L 72.621094 241.671875 C 72.171875 241.386719 71.742188 241.078125 71.328125 240.746094 L 70.882812 240.390625 L 71.238281 239.957031 C 72.464844 238.527344 73.898438 237.355469 75.546875 236.445312 C 77.191406 235.535156 78.949219 234.941406 80.808594 234.667969 L 81.382812 234.570312 L 81.460938 235.152344 C 81.519531 235.605469 81.570312 236.136719 81.628906 236.730469 Z M 81.628906 237.210938 " fill-opacity="1" fill-rule="nonzero"/><path fill="#000000" d="M 72.964844 242.3125 C 72.894531 242.3125 72.828125 242.292969 72.769531 242.253906 L 72.414062 242.027344 C 72.117188 241.839844 71.652344 241.515625 71.089844 241.039062 L 70.65625 240.683594 C 70.574219 240.625 70.527344 240.542969 70.519531 240.4375 C 70.507812 240.339844 70.535156 240.25 70.597656 240.171875 L 70.953125 239.726562 C 72.195312 238.261719 73.65625 237.054688 75.332031 236.117188 C 77.011719 235.179688 78.800781 234.5625 80.699219 234.273438 L 81.273438 234.175781 C 81.378906 234.160156 81.472656 234.183594 81.558594 234.242188 C 81.640625 234.304688 81.6875 234.390625 81.707031 234.488281 L 81.777344 235.070312 C 81.835938 235.527344 81.894531 236.058594 81.953125 236.671875 L 81.953125 237.152344 C 81.964844 237.242188 81.941406 237.324219 81.890625 237.398438 C 81.835938 237.472656 81.765625 237.519531 81.675781 237.539062 L 81.203125 237.65625 C 78.304688 238.484375 75.734375 239.902344 73.488281 241.910156 L 73.171875 242.195312 C 73.117188 242.257812 73.046875 242.296875 72.964844 242.3125 Z M 71.40625 240.339844 L 71.554688 240.46875 C 72.085938 240.882812 72.542969 241.1875 72.816406 241.375 L 72.9375 241.445312 L 73.042969 241.355469 C 75.378906 239.265625 78.050781 237.789062 81.066406 236.9375 L 81.222656 236.9375 L 81.222656 236.738281 C 81.164062 236.136719 81.113281 235.625 81.054688 235.179688 L 81.054688 234.984375 L 80.859375 234.984375 C 79.046875 235.261719 77.34375 235.847656 75.746094 236.742188 C 74.144531 237.632812 72.753906 238.777344 71.566406 240.171875 Z M 71.40625 240.339844 " fill-opacity="1" fill-rule="nonzero"/><path fill="#ffffff" d="M 302.792969 352.503906 L 291.832031 352.503906 L 291.269531 340.902344 L 302.257812 340.902344 Z M 302.792969 352.503906 " fill-opacity="1" fill-rule="nonzero"/><path fill="#ffffff" d="M 247.484375 340.902344 L 244.40625 352.503906 L 233.472656 352.503906 L 236.5625 340.902344 Z M 247.484375 340.902344 " fill-opacity="1" fill-rule="nonzero"/><path fill="#000000" d="M 302.792969 352.878906 L 291.832031 352.878906 C 291.730469 352.878906 291.644531 352.847656 291.574219 352.777344 C 291.5 352.710938 291.460938 352.625 291.457031 352.523438 L 290.894531 340.921875 C 290.890625 340.820312 290.925781 340.726562 290.992188 340.648438 C 291.070312 340.570312 291.160156 340.535156 291.269531 340.539062 L 302.257812 340.539062 C 302.359375 340.535156 302.445312 340.566406 302.515625 340.632812 C 302.589844 340.703125 302.628906 340.785156 302.632812 340.882812 L 303.195312 352.484375 C 303.207031 352.59375 303.175781 352.683594 303.097656 352.761719 C 303.015625 352.855469 302.914062 352.894531 302.792969 352.878906 Z M 292.1875 352.171875 L 302.4375 352.171875 L 301.914062 341.316406 L 291.652344 341.316406 Z M 244.40625 352.910156 L 233.472656 352.910156 C 233.355469 352.90625 233.261719 352.855469 233.1875 352.761719 C 233.105469 352.667969 233.085938 352.5625 233.117188 352.445312 L 236.207031 340.84375 C 236.25 340.65625 236.367188 340.5625 236.5625 340.566406 L 247.484375 340.566406 C 247.605469 340.566406 247.703125 340.609375 247.78125 340.707031 C 247.851562 340.804688 247.875 340.914062 247.847656 341.03125 L 244.761719 352.632812 C 244.699219 352.800781 244.582031 352.882812 244.40625 352.878906 Z M 233.957031 352.171875 L 244.121094 352.171875 L 247.011719 341.316406 L 236.847656 341.316406 Z M 233.957031 352.171875 " fill-opacity="1" fill-rule="nonzero"/><path fill="#000000" d="M 304.597656 355.976562 C 304.644531 356.167969 304.652344 356.355469 304.613281 356.546875 C 304.574219 356.738281 304.496094 356.910156 304.375 357.0625 C 304.257812 357.21875 304.109375 357.339844 303.9375 357.425781 C 303.761719 357.511719 303.578125 357.554688 303.382812 357.558594 L 277.230469 357.558594 C 277.070312 357.554688 276.925781 357.5 276.800781 357.398438 C 276.675781 357.300781 276.59375 357.171875 276.558594 357.015625 C 276.519531 356.859375 276.53125 356.707031 276.597656 356.5625 C 276.660156 356.414062 276.761719 356.300781 276.902344 356.226562 L 291.703125 348.519531 C 296.695312 353.027344 302.632812 348.519531 302.632812 348.519531 Z M 245.402344 348.519531 C 245.402344 348.519531 239.484375 353.027344 234.480469 348.519531 L 219.679688 356.226562 C 219.542969 356.300781 219.441406 356.414062 219.375 356.558594 C 219.308594 356.707031 219.296875 356.855469 219.332031 357.011719 C 219.371094 357.167969 219.449219 357.292969 219.574219 357.394531 C 219.695312 357.496094 219.835938 357.550781 219.996094 357.558594 L 246.152344 357.558594 C 246.347656 357.554688 246.53125 357.511719 246.703125 357.425781 C 246.878906 357.339844 247.023438 357.21875 247.144531 357.0625 C 247.261719 356.910156 247.339844 356.738281 247.378906 356.546875 C 247.417969 356.355469 247.414062 356.167969 247.367188 355.976562 Z M 245.402344 348.519531 " fill-opacity="1" fill-rule="nonzero"/><path fill="#ffffff" d="M 187.753906 237.371094 L 216.289062 237.371094 L 216.289062 265.210938 L 187.753906 265.210938 Z M 187.753906 237.371094 " fill-opacity="1" fill-rule="nonzero"/><path fill="#a6a6a6" d="M 169.03125 322.277344 L 197.550781 322.277344 L 197.550781 350.117188 L 169.03125 350.117188 Z M 169.03125 322.277344 " fill-opacity="1" fill-rule="nonzero"/><path fill="#000000" d="M 232.792969 300.796875 L 232.792969 328.648438 L 204.269531 328.648438 L 204.269531 300.796875 Z M 192.421875 344.613281 L 192.421875 316.769531 C 192.421875 316.667969 192.386719 316.578125 192.3125 316.507812 C 192.238281 316.433594 192.152344 316.394531 192.046875 316.394531 L 163.515625 316.394531 C 163.414062 316.398438 163.328125 316.4375 163.257812 316.507812 C 163.183594 316.582031 163.148438 316.667969 163.148438 316.769531 L 163.148438 344.613281 C 163.148438 344.714844 163.183594 344.800781 163.257812 344.875 C 163.328125 344.949219 163.414062 344.984375 163.515625 344.988281 L 192.046875 344.988281 C 192.152344 344.988281 192.238281 344.949219 192.3125 344.878906 C 192.386719 344.804688 192.421875 344.714844 192.421875 344.613281 Z M 163.890625 317.136719 L 191.683594 317.136719 L 191.683594 344.277344 L 163.890625 344.277344 Z M 163.890625 317.136719 " fill-opacity="1" fill-rule="nonzero"/><path fill="#000000" d="M 273.539062 236.996094 L 245.285156 236.996094 L 245.285156 209.28125 C 245.28125 209.183594 245.246094 209.097656 245.175781 209.027344 C 245.101562 208.957031 245.019531 208.917969 244.917969 208.917969 L 216.664062 208.917969 L 216.664062 181.203125 C 216.664062 181.101562 216.628906 181.015625 216.554688 180.941406 C 216.484375 180.871094 216.398438 180.832031 216.296875 180.828125 L 159.132812 180.828125 C 159.03125 180.828125 158.945312 180.867188 158.871094 180.9375 C 158.800781 181.011719 158.765625 181.101562 158.769531 181.203125 L 158.769531 208.917969 L 130.503906 208.917969 C 130.402344 208.917969 130.316406 208.953125 130.242188 209.023438 C 130.167969 209.09375 130.132812 209.179688 130.128906 209.28125 L 130.128906 237.132812 C 130.125 237.167969 130.125 237.199219 130.128906 237.230469 C 130.125 237.277344 130.125 237.324219 130.128906 237.371094 L 130.128906 264.640625 L 101.863281 264.640625 C 101.761719 264.640625 101.679688 264.679688 101.609375 264.75 C 101.539062 264.820312 101.5 264.90625 101.496094 265.003906 L 101.496094 292.855469 C 101.5 292.957031 101.539062 293.042969 101.609375 293.113281 C 101.679688 293.183594 101.761719 293.21875 101.863281 293.222656 L 187.695312 293.222656 C 187.796875 293.21875 187.882812 293.183594 187.953125 293.113281 C 188.023438 293.042969 188.058594 292.957031 188.0625 292.855469 L 188.0625 265.585938 L 215.972656 265.585938 L 215.972656 292.855469 C 215.976562 292.957031 216.011719 293.042969 216.085938 293.113281 C 216.15625 293.1875 216.246094 293.222656 216.347656 293.222656 L 273.5 293.222656 C 273.601562 293.222656 273.6875 293.1875 273.757812 293.113281 C 273.828125 293.042969 273.863281 292.957031 273.863281 292.855469 L 273.863281 237.371094 C 273.867188 237.273438 273.839844 237.191406 273.777344 237.121094 C 273.714844 237.046875 273.632812 237.007812 273.539062 236.996094 Z M 273.195312 237.726562 L 273.195312 264.628906 L 245.382812 264.628906 L 245.382812 237.726562 Z M 215.972656 209.648438 L 215.972656 236.738281 L 188.128906 236.738281 L 188.128906 209.65625 Z M 187.359375 236.996094 L 159.402344 236.996094 L 159.402344 209.421875 L 187.359375 209.421875 Z M 130.839844 237.734375 L 158.652344 237.734375 L 158.652344 264.640625 L 130.867188 264.640625 Z M 159.449219 237.734375 L 187.234375 237.734375 L 187.234375 264.640625 L 159.5 264.640625 Z M 216.671875 237.734375 L 244.582031 237.734375 L 244.582031 264.640625 L 216.75 264.640625 Z M 216.671875 209.65625 L 244.582031 209.65625 L 244.582031 236.738281 L 216.761719 236.738281 Z M 188.0625 181.570312 L 215.972656 181.570312 L 215.972656 208.679688 L 188.128906 208.679688 Z M 159.449219 181.570312 L 187.234375 181.570312 L 187.234375 208.679688 L 159.507812 208.679688 Z M 130.839844 209.65625 L 158.632812 209.65625 L 158.632812 236.738281 L 130.867188 236.738281 Z M 130 292.53125 L 102.238281 292.53125 L 102.238281 265.351562 L 130.03125 265.351562 Z M 130.839844 292.53125 L 130.839844 265.585938 L 158.652344 265.585938 L 158.652344 292.480469 Z M 159.449219 292.53125 L 159.449219 265.585938 L 187.234375 265.585938 L 187.234375 292.480469 Z M 215.863281 264.90625 L 188.121094 264.90625 L 188.121094 237.726562 L 215.914062 237.726562 Z M 216.703125 292.53125 L 216.703125 265.585938 L 244.582031 265.585938 L 244.582031 292.480469 Z M 245.3125 292.53125 L 245.3125 265.585938 L 273.195312 265.585938 L 273.195312 292.480469 Z M 245.3125 292.53125 " fill-opacity="1" fill-rule="nonzero"/><path fill="#a6a6a6" d="M 326.945312 126.140625 L 322.691406 130.570312 L 326.636719 137.390625 L 332.746094 136.105469 C 334.234375 137.621094 335.898438 138.910156 337.742188 139.964844 C 339.585938 141.023438 341.539062 141.8125 343.597656 142.332031 L 345.34375 148.410156 L 353.234375 148.410156 L 355.289062 142.234375 C 357.289062 141.703125 359.179688 140.917969 360.96875 139.878906 C 362.757812 138.839844 364.375 137.582031 365.824219 136.105469 L 371.953125 137.378906 L 375.898438 130.5625 L 371.644531 126.140625 C 372.210938 124.121094 372.503906 122.0625 372.515625 119.964844 C 372.527344 117.867188 372.257812 115.804688 371.714844 113.78125 L 376.074219 108.847656 L 372.070312 102.058594 L 365.894531 103.636719 C 364.410156 102.121094 362.753906 100.832031 360.917969 99.769531 C 359.082031 98.707031 357.136719 97.910156 355.082031 97.382812 L 353.324219 91.324219 L 345.433594 91.324219 L 343.460938 97.363281 C 341.425781 97.890625 339.496094 98.675781 337.675781 99.726562 C 335.855469 100.777344 334.207031 102.050781 332.734375 103.550781 L 326.675781 102 L 322.671875 108.789062 L 326.925781 113.613281 C 326.359375 115.640625 326.082031 117.703125 326.085938 119.808594 C 326.078125 121.960938 326.363281 124.070312 326.945312 126.140625 Z M 336.445312 119.777344 C 336.445312 118.929688 336.527344 118.089844 336.691406 117.257812 C 336.859375 116.425781 337.101562 115.621094 337.425781 114.835938 C 337.753906 114.054688 338.148438 113.308594 338.621094 112.605469 C 339.09375 111.898438 339.628906 111.246094 340.226562 110.648438 C 340.828125 110.046875 341.480469 109.511719 342.183594 109.039062 C 342.890625 108.570312 343.632812 108.171875 344.417969 107.847656 C 345.199219 107.523438 346.007812 107.277344 346.839844 107.113281 C 347.671875 106.945312 348.511719 106.863281 349.359375 106.863281 C 350.207031 106.863281 351.046875 106.945312 351.878906 107.113281 C 352.710938 107.277344 353.519531 107.523438 354.300781 107.847656 C 355.085938 108.171875 355.828125 108.570312 356.535156 109.039062 C 357.238281 109.511719 357.890625 110.046875 358.492188 110.648438 C 359.089844 111.246094 359.625 111.898438 360.097656 112.605469 C 360.566406 113.308594 360.964844 114.054688 361.289062 114.835938 C 361.613281 115.621094 361.859375 116.425781 362.023438 117.257812 C 362.191406 118.089844 362.273438 118.929688 362.273438 119.777344 C 362.273438 120.625 362.191406 121.464844 362.023438 122.296875 C 361.859375 123.128906 361.613281 123.9375 361.289062 124.722656 C 360.964844 125.503906 360.566406 126.25 360.097656 126.953125 C 359.625 127.660156 359.089844 128.3125 358.492188 128.910156 C 357.890625 129.511719 357.238281 130.046875 356.535156 130.515625 C 355.828125 130.988281 355.085938 131.386719 354.300781 131.710938 C 353.519531 132.035156 352.710938 132.28125 351.878906 132.445312 C 351.046875 132.609375 350.207031 132.691406 349.359375 132.691406 C 348.511719 132.691406 347.671875 132.609375 346.839844 132.445312 C 346.007812 132.28125 345.199219 132.035156 344.417969 131.710938 C 343.632812 131.386719 342.890625 130.988281 342.183594 130.515625 C 341.480469 130.046875 340.828125 129.511719 340.226562 128.910156 C 339.628906 128.3125 339.09375 127.660156 338.621094 126.953125 C 338.148438 126.25 337.753906 125.503906 337.425781 124.722656 C 337.101562 123.9375 336.859375 123.128906 336.691406 122.296875 C 336.527344 121.464844 336.445312 120.625 336.445312 119.777344 Z M 336.445312 119.777344 " fill-opacity="1" fill-rule="nonzero"/><path fill="#000000" d="M 218.023438 101.152344 L 218.023438 128.992188 L 189.5 128.992188 L 189.5 101.152344 Z M 165.902344 158.796875 L 165.902344 130.925781 C 165.898438 130.824219 165.863281 130.738281 165.789062 130.667969 C 165.714844 130.597656 165.628906 130.5625 165.527344 130.5625 L 137.042969 130.5625 C 136.945312 130.566406 136.859375 130.601562 136.789062 130.671875 C 136.71875 130.742188 136.683594 130.828125 136.679688 130.925781 L 136.679688 158.796875 C 136.683594 158.898438 136.71875 158.984375 136.789062 159.054688 C 136.859375 159.125 136.945312 159.160156 137.042969 159.164062 L 165.578125 159.164062 C 165.789062 159.136719 165.898438 159.011719 165.902344 158.796875 Z M 137.371094 131.300781 L 165.164062 131.300781 L 165.164062 158.402344 L 137.371094 158.402344 Z M 79.25 166.304688 L 85.464844 166.304688 C 85.648438 166.308594 85.765625 166.21875 85.8125 166.039062 L 87.132812 161.441406 C 90.359375 160.585938 93.15625 158.984375 95.519531 156.628906 L 100.15625 157.613281 C 100.328125 157.648438 100.460938 157.589844 100.550781 157.4375 L 103.648438 152.050781 C 103.738281 151.886719 103.71875 151.738281 103.589844 151.605469 L 100.382812 148.273438 C 101.242188 145.050781 101.242188 141.832031 100.382812 138.613281 L 103.597656 134.960938 C 103.699219 134.816406 103.699219 134.671875 103.597656 134.527344 L 100.542969 129.132812 C 100.445312 128.972656 100.304688 128.917969 100.125 128.964844 L 95.519531 130.1875 C 93.167969 127.847656 90.394531 126.242188 87.191406 125.371094 L 85.742188 120.753906 C 85.6875 120.582031 85.570312 120.496094 85.386719 120.5 L 79.132812 120.5 C 78.945312 120.496094 78.828125 120.585938 78.777344 120.765625 L 77.445312 125.34375 C 74.246094 126.21875 71.476562 127.835938 69.136719 130.1875 L 64.472656 128.992188 C 64.292969 128.949219 64.15625 129.007812 64.058594 129.160156 L 60.910156 134.519531 C 60.796875 134.664062 60.796875 134.808594 60.910156 134.953125 L 64.226562 138.710938 C 63.382812 141.894531 63.382812 145.078125 64.226562 148.261719 L 61.078125 151.566406 C 60.953125 151.703125 60.933594 151.851562 61.027344 152.011719 L 64.117188 157.398438 C 64.207031 157.550781 64.335938 157.609375 64.511719 157.574219 L 69.15625 156.589844 C 71.464844 158.890625 74.1875 160.480469 77.328125 161.355469 L 78.875 166.03125 C 78.933594 166.199219 79.050781 166.285156 79.230469 166.285156 Z M 69.21875 155.839844 L 64.648438 156.824219 L 61.828125 151.890625 L 65.023438 148.597656 C 65.125 148.496094 65.152344 148.378906 65.113281 148.242188 C 64.664062 146.648438 64.441406 145.023438 64.441406 143.367188 C 64.433594 141.78125 64.625 140.21875 65.023438 138.683594 C 65.054688 138.554688 65.027344 138.445312 64.945312 138.347656 L 61.679688 134.628906 L 64.558594 129.753906 L 69.167969 130.925781 C 69.304688 130.964844 69.421875 130.929688 69.523438 130.828125 C 71.851562 128.449219 74.625 126.839844 77.847656 126.003906 C 77.988281 125.972656 78.078125 125.886719 78.117188 125.746094 L 79.429688 121.238281 L 85.089844 121.238281 L 86.570312 125.746094 C 86.613281 125.875 86.699219 125.957031 86.828125 125.996094 C 90.050781 126.820312 92.832031 128.421875 95.164062 130.800781 C 95.261719 130.90625 95.378906 130.941406 95.519531 130.898438 L 100.027344 129.753906 L 102.910156 134.628906 L 99.730469 138.238281 C 99.648438 138.335938 99.621094 138.449219 99.652344 138.574219 C 100.550781 141.796875 100.550781 145.019531 99.652344 148.242188 C 99.613281 148.378906 99.644531 148.496094 99.742188 148.597656 L 102.871094 151.890625 L 100.046875 156.824219 L 95.46875 155.839844 C 95.339844 155.804688 95.226562 155.839844 95.132812 155.9375 C 92.785156 158.335938 89.984375 159.945312 86.730469 160.773438 C 86.589844 160.804688 86.5 160.890625 86.460938 161.027344 L 85.160156 165.558594 L 79.496094 165.558594 L 77.96875 160.9375 C 77.925781 160.8125 77.839844 160.730469 77.710938 160.691406 C 74.550781 159.855469 71.828125 158.269531 69.542969 155.9375 C 69.46875 155.867188 69.378906 155.832031 69.277344 155.828125 Z M 92.894531 143.308594 C 92.894531 142.617188 92.828125 141.929688 92.691406 141.25 C 92.558594 140.574219 92.359375 139.914062 92.09375 139.273438 C 91.828125 138.632812 91.503906 138.023438 91.121094 137.449219 C 90.734375 136.875 90.296875 136.339844 89.808594 135.851562 C 89.320312 135.359375 88.789062 134.921875 88.210938 134.539062 C 87.636719 134.152344 87.027344 133.828125 86.390625 133.5625 C 85.75 133.296875 85.089844 133.09375 84.410156 132.957031 C 83.734375 132.824219 83.046875 132.753906 82.355469 132.753906 C 81.664062 132.75 80.976562 132.816406 80.296875 132.953125 C 79.617188 133.085938 78.957031 133.285156 78.316406 133.546875 C 77.675781 133.8125 77.070312 134.136719 76.492188 134.519531 C 75.914062 134.902344 75.382812 135.339844 74.890625 135.828125 C 74.402344 136.316406 73.960938 136.847656 73.574219 137.421875 C 73.191406 137.996094 72.863281 138.605469 72.597656 139.242188 C 72.328125 139.882812 72.128906 140.539062 71.992188 141.21875 C 71.855469 141.898438 71.785156 142.582031 71.78125 143.277344 C 71.78125 143.96875 71.84375 144.65625 71.976562 145.335938 C 72.109375 146.015625 72.308594 146.675781 72.570312 147.316406 C 72.835938 147.957031 73.15625 148.5625 73.539062 149.140625 C 73.921875 149.71875 74.355469 150.253906 74.84375 150.746094 C 75.332031 151.234375 75.863281 151.675781 76.4375 152.0625 C 77.011719 152.449219 77.617188 152.777344 78.257812 153.042969 C 78.894531 153.3125 79.554688 153.515625 80.234375 153.652344 C 80.910156 153.792969 81.597656 153.863281 82.289062 153.867188 C 82.980469 153.863281 83.667969 153.796875 84.347656 153.660156 C 85.027344 153.527344 85.683594 153.324219 86.324219 153.058594 C 86.964844 152.796875 87.574219 152.46875 88.148438 152.085938 C 88.722656 151.699219 89.257812 151.265625 89.746094 150.773438 C 90.238281 150.285156 90.675781 149.753906 91.058594 149.175781 C 91.445312 148.601562 91.769531 147.992188 92.035156 147.355469 C 92.300781 146.714844 92.503906 146.054688 92.640625 145.375 C 92.777344 144.699219 92.84375 144.011719 92.84375 143.320312 Z M 92.15625 143.308594 C 92.15625 143.957031 92.09375 144.597656 91.964844 145.234375 C 91.839844 145.871094 91.652344 146.484375 91.402344 147.085938 C 91.15625 147.683594 90.851562 148.25 90.492188 148.789062 C 90.132812 149.328125 89.722656 149.828125 89.265625 150.285156 C 88.808594 150.742188 88.308594 151.152344 87.769531 151.511719 C 87.230469 151.871094 86.664062 152.175781 86.066406 152.425781 C 85.464844 152.671875 84.847656 152.859375 84.214844 152.984375 C 83.578125 153.113281 82.9375 153.175781 82.289062 153.175781 C 81.640625 153.175781 81 153.113281 80.363281 152.984375 C 79.730469 152.859375 79.113281 152.671875 78.511719 152.425781 C 77.914062 152.175781 77.347656 151.871094 76.808594 151.511719 C 76.269531 151.152344 75.769531 150.742188 75.3125 150.285156 C 74.855469 149.828125 74.445312 149.328125 74.085938 148.789062 C 73.726562 148.25 73.421875 147.683594 73.175781 147.085938 C 72.925781 146.484375 72.738281 145.871094 72.613281 145.234375 C 72.488281 144.597656 72.421875 143.957031 72.421875 143.308594 C 72.421875 142.660156 72.488281 142.019531 72.613281 141.382812 C 72.738281 140.75 72.925781 140.132812 73.175781 139.535156 C 73.421875 138.933594 73.726562 138.367188 74.085938 137.828125 C 74.445312 137.289062 74.855469 136.789062 75.3125 136.332031 C 75.769531 135.875 76.269531 135.464844 76.808594 135.105469 C 77.347656 134.746094 77.914062 134.441406 78.511719 134.195312 C 79.113281 133.945312 79.730469 133.757812 80.363281 133.632812 C 81 133.507812 81.640625 133.441406 82.289062 133.441406 C 82.933594 133.445312 83.574219 133.511719 84.207031 133.640625 C 84.839844 133.769531 85.457031 133.960938 86.050781 134.210938 C 86.648438 134.457031 87.214844 134.765625 87.75 135.125 C 88.285156 135.484375 88.78125 135.894531 89.238281 136.355469 C 89.691406 136.8125 90.097656 137.308594 90.457031 137.847656 C 90.8125 138.386719 91.117188 138.953125 91.363281 139.550781 C 91.609375 140.148438 91.792969 140.765625 91.917969 141.398438 C 92.042969 142.03125 92.105469 142.671875 92.105469 143.320312 Z M 106.964844 198.65625 C 106.789062 198.65625 106.667969 198.574219 106.609375 198.410156 L 105.621094 195.449219 C 103.644531 194.886719 101.921875 193.882812 100.453125 192.441406 L 97.5625 193.042969 C 97.386719 193.078125 97.257812 193.019531 97.167969 192.867188 L 95.195312 189.421875 C 95.101562 189.257812 95.121094 189.113281 95.253906 188.976562 L 97.226562 186.90625 C 96.710938 184.894531 96.710938 182.882812 97.226562 180.867188 L 95.164062 178.53125 C 95.0625 178.386719 95.0625 178.242188 95.164062 178.097656 L 97.136719 174.671875 C 97.230469 174.515625 97.363281 174.460938 97.542969 174.503906 L 100.5 175.246094 C 101.988281 173.78125 103.734375 172.769531 105.742188 172.207031 L 106.570312 169.34375 C 106.621094 169.167969 106.742188 169.082031 106.925781 169.078125 L 110.871094 169.078125 C 111.050781 169.078125 111.167969 169.164062 111.226562 169.335938 L 112.210938 172.195312 C 114.226562 172.753906 115.980469 173.761719 117.472656 175.226562 L 120.320312 174.503906 C 120.5 174.460938 120.636719 174.519531 120.738281 174.671875 L 122.710938 178.097656 C 122.8125 178.242188 122.8125 178.386719 122.710938 178.53125 L 120.738281 180.808594 C 121.265625 182.84375 121.265625 184.878906 120.738281 186.917969 L 122.710938 188.988281 C 122.847656 189.121094 122.863281 189.269531 122.757812 189.433594 L 120.785156 192.875 C 120.695312 193.027344 120.566406 193.085938 120.390625 193.054688 L 117.492188 192.449219 C 115.996094 193.925781 114.230469 194.941406 112.203125 195.488281 L 111.375 198.359375 C 111.324219 198.539062 111.203125 198.628906 111.019531 198.628906 Z M 100.601562 191.703125 C 100.699219 191.699219 100.785156 191.738281 100.855469 191.808594 C 102.308594 193.28125 104.03125 194.285156 106.027344 194.820312 C 106.15625 194.851562 106.242188 194.929688 106.28125 195.054688 L 107.269531 197.917969 L 110.691406 197.917969 L 111.492188 195.113281 C 111.535156 194.980469 111.621094 194.894531 111.757812 194.859375 C 113.808594 194.339844 115.574219 193.328125 117.054688 191.820312 C 117.152344 191.726562 117.269531 191.691406 117.402344 191.710938 L 120.234375 192.304688 L 121.929688 189.34375 L 119.957031 187.3125 C 119.863281 187.207031 119.832031 187.089844 119.867188 186.957031 C 120.148438 185.941406 120.285156 184.910156 120.273438 183.859375 C 120.273438 182.832031 120.136719 181.820312 119.867188 180.828125 C 119.824219 180.699219 119.851562 180.589844 119.945312 180.492188 L 121.921875 178.253906 L 120.175781 175.292969 L 117.390625 176.003906 C 117.253906 176.046875 117.132812 176.011719 117.035156 175.90625 C 115.5625 174.402344 113.808594 173.390625 111.769531 172.867188 C 111.640625 172.835938 111.554688 172.757812 111.511719 172.628906 L 110.59375 169.828125 L 107.160156 169.828125 L 106.351562 172.609375 C 106.3125 172.75 106.226562 172.832031 106.085938 172.867188 C 104.050781 173.394531 102.300781 174.410156 100.835938 175.914062 C 100.738281 176.019531 100.621094 176.050781 100.480469 176.015625 L 97.628906 175.285156 L 95.894531 178.246094 L 97.867188 180.554688 C 97.953125 180.652344 97.976562 180.761719 97.945312 180.886719 C 97.390625 182.902344 97.390625 184.914062 97.945312 186.925781 C 97.988281 187.0625 97.957031 187.179688 97.859375 187.28125 L 95.882812 189.3125 L 97.589844 192.273438 L 100.421875 191.679688 Z M 108.90625 190.714844 C 108.453125 190.714844 108.003906 190.671875 107.558594 190.582031 C 107.113281 190.492188 106.683594 190.363281 106.265625 190.1875 C 105.84375 190.015625 105.449219 189.800781 105.070312 189.550781 C 104.695312 189.300781 104.34375 189.011719 104.023438 188.691406 C 103.703125 188.371094 103.417969 188.023438 103.164062 187.644531 C 102.914062 187.269531 102.699219 186.871094 102.527344 186.453125 C 102.351562 186.03125 102.222656 185.601562 102.132812 185.15625 C 102.046875 184.710938 102 184.261719 102 183.808594 C 102 183.355469 102.046875 182.90625 102.132812 182.460938 C 102.222656 182.015625 102.351562 181.585938 102.527344 181.164062 C 102.699219 180.746094 102.914062 180.347656 103.164062 179.972656 C 103.417969 179.59375 103.703125 179.246094 104.023438 178.925781 C 104.34375 178.605469 104.695312 178.316406 105.070312 178.066406 C 105.449219 177.8125 105.84375 177.601562 106.265625 177.429688 C 106.683594 177.253906 107.117188 177.125 107.558594 177.035156 C 108.003906 176.945312 108.453125 176.902344 108.90625 176.902344 C 109.359375 176.902344 109.808594 176.945312 110.253906 177.035156 C 110.699219 177.125 111.132812 177.253906 111.550781 177.429688 C 111.96875 177.601562 112.367188 177.8125 112.746094 178.066406 C 113.121094 178.316406 113.46875 178.605469 113.789062 178.925781 C 114.109375 179.246094 114.398438 179.59375 114.648438 179.972656 C 114.902344 180.347656 115.113281 180.746094 115.289062 181.164062 C 115.460938 181.585938 115.59375 182.015625 115.679688 182.460938 C 115.769531 182.90625 115.8125 183.355469 115.8125 183.808594 C 115.8125 184.261719 115.769531 184.710938 115.679688 185.15625 C 115.589844 185.597656 115.457031 186.03125 115.285156 186.449219 C 115.109375 186.867188 114.898438 187.265625 114.644531 187.640625 C 114.394531 188.015625 114.109375 188.367188 113.789062 188.6875 C 113.464844 189.003906 113.117188 189.292969 112.742188 189.542969 C 112.363281 189.792969 111.964844 190.007812 111.546875 190.179688 C 111.128906 190.351562 110.699219 190.484375 110.253906 190.574219 C 109.808594 190.660156 109.359375 190.703125 108.90625 190.703125 Z M 108.90625 177.691406 C 108.503906 177.691406 108.105469 177.730469 107.707031 177.808594 C 107.3125 177.886719 106.929688 178.003906 106.554688 178.160156 C 106.183594 178.3125 105.828125 178.503906 105.492188 178.726562 C 105.15625 178.953125 104.847656 179.207031 104.5625 179.492188 C 104.277344 179.777344 104.019531 180.085938 103.796875 180.421875 C 103.574219 180.757812 103.382812 181.113281 103.230469 181.484375 C 103.074219 181.859375 102.957031 182.242188 102.878906 182.640625 C 102.800781 183.035156 102.761719 183.433594 102.761719 183.839844 C 102.761719 184.242188 102.800781 184.640625 102.878906 185.039062 C 102.957031 185.433594 103.074219 185.816406 103.230469 186.191406 C 103.382812 186.5625 103.574219 186.917969 103.796875 187.253906 C 104.019531 187.589844 104.277344 187.898438 104.5625 188.183594 C 104.847656 188.46875 105.15625 188.722656 105.492188 188.949219 C 105.828125 189.171875 106.183594 189.363281 106.554688 189.515625 C 106.929688 189.671875 107.3125 189.789062 107.707031 189.867188 C 108.105469 189.945312 108.503906 189.984375 108.90625 189.984375 C 109.3125 189.984375 109.710938 189.945312 110.105469 189.867188 C 110.503906 189.789062 110.886719 189.671875 111.257812 189.515625 C 111.632812 189.363281 111.988281 189.171875 112.320312 188.949219 C 112.65625 188.722656 112.96875 188.46875 113.253906 188.183594 C 113.539062 187.898438 113.792969 187.589844 114.019531 187.253906 C 114.242188 186.917969 114.429688 186.5625 114.585938 186.191406 C 114.742188 185.816406 114.855469 185.433594 114.9375 185.039062 C 115.015625 184.640625 115.054688 184.242188 115.054688 183.839844 C 115.054688 183.433594 115.015625 183.035156 114.9375 182.636719 C 114.859375 182.242188 114.742188 181.855469 114.589844 181.484375 C 114.433594 181.109375 114.246094 180.753906 114.019531 180.417969 C 113.796875 180.082031 113.542969 179.773438 113.257812 179.484375 C 112.972656 179.199219 112.660156 178.945312 112.324219 178.71875 C 111.988281 178.496094 111.636719 178.304688 111.261719 178.152344 C 110.886719 177.996094 110.503906 177.878906 110.109375 177.800781 C 109.710938 177.722656 109.3125 177.683594 108.90625 177.683594 Z M 108.90625 177.691406 " fill-opacity="1" fill-rule="nonzero"/><g clip-path="url(#4c58183d30)"><path fill="#000000" d="M 349.359375 146.613281 L 341.464844 146.613281 C 341.28125 146.605469 341.164062 146.515625 341.109375 146.339844 L 339.425781 140.417969 C 335.3125 139.339844 331.753906 137.300781 328.75 134.292969 L 322.828125 135.523438 C 322.652344 135.558594 322.519531 135.5 322.425781 135.347656 L 318.480469 128.519531 C 318.390625 128.359375 318.40625 128.210938 318.527344 128.074219 L 322.640625 123.804688 C 322.085938 121.78125 321.8125 119.71875 321.8125 117.617188 C 321.816406 115.546875 322.082031 113.511719 322.613281 111.511719 L 318.578125 106.863281 C 318.457031 106.730469 318.441406 106.585938 318.527344 106.429688 L 322.523438 99.652344 C 322.617188 99.496094 322.75 99.441406 322.929688 99.484375 L 328.777344 100.972656 C 331.769531 97.988281 335.304688 95.949219 339.382812 94.859375 L 341.269531 89.007812 C 341.324219 88.835938 341.445312 88.75 341.625 88.75 L 349.515625 88.75 C 349.703125 88.75 349.820312 88.835938 349.871094 89.015625 L 351.578125 94.878906 C 355.648438 95.976562 359.171875 98.015625 362.144531 101.003906 L 368.125 99.484375 C 368.300781 99.441406 368.433594 99.496094 368.527344 99.652344 L 372.535156 106.429688 C 372.621094 106.585938 372.605469 106.730469 372.484375 106.863281 L 368.253906 111.679688 C 368.765625 113.636719 369.023438 115.625 369.023438 117.648438 C 369.019531 119.75 368.742188 121.816406 368.191406 123.84375 L 372.296875 128.105469 C 372.425781 128.238281 372.445312 128.386719 372.355469 128.550781 L 368.410156 135.375 C 368.320312 135.527344 368.1875 135.589844 368.015625 135.554688 L 362.097656 134.320312 C 359.160156 137.257812 355.691406 139.277344 351.6875 140.378906 L 349.714844 146.367188 C 349.65625 146.535156 349.539062 146.617188 349.359375 146.613281 Z M 341.761719 145.855469 L 349.09375 145.855469 L 351.066406 139.933594 C 351.109375 139.808594 351.195312 139.730469 351.320312 139.699219 C 355.339844 138.625 358.8125 136.605469 361.730469 133.640625 C 361.824219 133.546875 361.9375 133.511719 362.066406 133.53125 L 367.90625 134.773438 L 371.558594 128.421875 L 367.492188 124.199219 C 367.390625 124.097656 367.363281 123.980469 367.402344 123.84375 C 367.964844 121.855469 368.25 119.832031 368.261719 117.765625 C 368.273438 115.703125 368.011719 113.671875 367.472656 111.679688 C 367.429688 111.550781 367.457031 111.4375 367.550781 111.34375 L 371.734375 106.578125 L 368.015625 100.265625 L 362.097656 101.773438 C 361.957031 101.816406 361.839844 101.78125 361.742188 101.675781 C 360.285156 100.1875 358.65625 98.925781 356.855469 97.882812 C 355.054688 96.839844 353.148438 96.058594 351.136719 95.539062 C 350.996094 95.503906 350.910156 95.421875 350.878906 95.28125 L 349.230469 89.492188 L 341.898438 89.492188 L 340.007812 95.28125 C 339.964844 95.40625 339.878906 95.484375 339.75 95.519531 C 337.734375 96.039062 335.828125 96.816406 334.027344 97.859375 C 332.226562 98.898438 330.597656 100.160156 329.144531 101.644531 C 329.046875 101.75 328.925781 101.78125 328.789062 101.742188 L 322.996094 100.265625 L 319.277344 106.578125 L 323.34375 111.207031 C 323.425781 111.304688 323.453125 111.414062 323.421875 111.539062 C 322.859375 113.554688 322.578125 115.601562 322.578125 117.691406 C 322.578125 119.78125 322.859375 121.832031 323.421875 123.84375 C 323.457031 123.976562 323.425781 124.097656 323.332031 124.199219 L 319.269531 128.421875 L 322.917969 134.773438 L 328.789062 133.550781 C 328.921875 133.527344 329.03125 133.5625 329.125 133.660156 C 330.589844 135.152344 332.226562 136.414062 334.039062 137.457031 C 335.855469 138.496094 337.773438 139.273438 339.800781 139.785156 C 339.9375 139.820312 340.027344 139.90625 340.066406 140.042969 Z M 345.5 130.859375 C 344.628906 130.859375 343.765625 130.773438 342.910156 130.601562 C 342.050781 130.433594 341.222656 130.179688 340.414062 129.847656 C 339.609375 129.511719 338.84375 129.101562 338.117188 128.617188 C 337.390625 128.132812 336.71875 127.582031 336.101562 126.964844 C 335.484375 126.347656 334.933594 125.675781 334.449219 124.949219 C 333.964844 124.226562 333.554688 123.457031 333.222656 122.652344 C 332.890625 121.847656 332.636719 121.015625 332.46875 120.160156 C 332.296875 119.304688 332.210938 118.4375 332.210938 117.566406 C 332.210938 116.691406 332.296875 115.828125 332.46875 114.972656 C 332.636719 114.117188 332.890625 113.285156 333.226562 112.480469 C 333.558594 111.671875 333.96875 110.90625 334.453125 110.183594 C 334.9375 109.457031 335.492188 108.785156 336.109375 108.167969 C 336.726562 107.550781 337.398438 107 338.121094 106.515625 C 338.847656 106.03125 339.613281 105.621094 340.421875 105.289062 C 341.226562 104.957031 342.058594 104.703125 342.914062 104.535156 C 343.769531 104.363281 344.636719 104.277344 345.507812 104.28125 C 346.378906 104.28125 347.246094 104.367188 348.101562 104.535156 C 348.957031 104.707031 349.789062 104.960938 350.59375 105.292969 C 351.398438 105.628906 352.164062 106.039062 352.890625 106.523438 C 353.617188 107.007812 354.289062 107.558594 354.902344 108.179688 C 355.519531 108.796875 356.070312 109.46875 356.554688 110.191406 C 357.039062 110.917969 357.449219 111.683594 357.78125 112.492188 C 358.117188 113.296875 358.367188 114.128906 358.539062 114.984375 C 358.707031 115.839844 358.792969 116.707031 358.789062 117.578125 C 358.789062 118.449219 358.703125 119.3125 358.53125 120.167969 C 358.359375 121.023438 358.105469 121.851562 357.769531 122.660156 C 357.4375 123.464844 357.027344 124.226562 356.542969 124.953125 C 356.054688 125.675781 355.503906 126.347656 354.890625 126.964844 C 354.273438 127.578125 353.601562 128.128906 352.875 128.613281 C 352.152344 129.097656 351.386719 129.507812 350.582031 129.84375 C 349.777344 130.175781 348.945312 130.429688 348.089844 130.601562 C 347.238281 130.769531 346.375 130.855469 345.5 130.859375 Z M 345.5 105.03125 C 344.675781 105.027344 343.859375 105.109375 343.050781 105.269531 C 342.242188 105.429688 341.460938 105.667969 340.699219 105.980469 C 339.9375 106.296875 339.210938 106.683594 338.527344 107.140625 C 337.839844 107.597656 337.207031 108.117188 336.625 108.699219 C 336.039062 109.28125 335.519531 109.914062 335.0625 110.601562 C 334.601562 111.285156 334.214844 112.007812 333.898438 112.769531 C 333.585938 113.53125 333.347656 114.316406 333.183594 115.125 C 333.023438 115.933594 332.941406 116.75 332.941406 117.570312 C 332.941406 118.394531 333.023438 119.210938 333.183594 120.019531 C 333.34375 120.828125 333.582031 121.613281 333.894531 122.375 C 334.210938 123.136719 334.597656 123.859375 335.054688 124.546875 C 335.511719 125.230469 336.03125 125.867188 336.613281 126.449219 C 337.195312 127.03125 337.832031 127.550781 338.515625 128.011719 C 339.199219 128.46875 339.925781 128.855469 340.683594 129.171875 C 341.445312 129.488281 342.230469 129.726562 343.039062 129.886719 C 343.847656 130.046875 344.664062 130.128906 345.488281 130.128906 C 346.3125 130.128906 347.128906 130.046875 347.9375 129.886719 C 348.746094 129.726562 349.53125 129.488281 350.292969 129.175781 C 351.054688 128.859375 351.777344 128.472656 352.460938 128.015625 C 353.148438 127.558594 353.78125 127.035156 354.363281 126.453125 C 354.945312 125.871094 355.46875 125.238281 355.925781 124.550781 C 356.382812 123.867188 356.769531 123.144531 357.085938 122.382812 C 357.402344 121.621094 357.640625 120.835938 357.800781 120.027344 C 357.960938 119.21875 358.039062 118.402344 358.039062 117.578125 C 358.039062 116.753906 357.957031 115.941406 357.796875 115.132812 C 357.636719 114.324219 357.398438 113.542969 357.082031 112.78125 C 356.765625 112.019531 356.378906 111.300781 355.921875 110.613281 C 355.464844 109.929688 354.945312 109.296875 354.363281 108.714844 C 353.78125 108.132812 353.148438 107.613281 352.464844 107.152344 C 351.78125 106.695312 351.058594 106.308594 350.296875 105.992188 C 349.539062 105.675781 348.753906 105.4375 347.945312 105.277344 C 347.140625 105.113281 346.324219 105.03125 345.5 105.03125 Z M 317.777344 178.53125 L 312.746094 178.53125 C 312.558594 178.53125 312.441406 178.445312 312.390625 178.265625 L 311.335938 174.582031 C 308.734375 173.867188 306.480469 172.554688 304.578125 170.636719 L 300.847656 171.417969 C 300.675781 171.449219 300.542969 171.390625 300.453125 171.238281 L 297.949219 166.867188 C 297.859375 166.710938 297.875 166.566406 297.996094 166.433594 L 300.570312 163.75 C 300.234375 162.457031 300.066406 161.140625 300.070312 159.804688 C 300.0625 158.492188 300.226562 157.203125 300.5625 155.9375 L 297.976562 152.976562 C 297.871094 152.835938 297.871094 152.695312 297.976562 152.554688 L 300.53125 148.210938 C 300.628906 148.058594 300.769531 148.003906 300.945312 148.042969 L 304.605469 149.03125 C 306.503906 147.148438 308.746094 145.855469 311.324219 145.152344 L 312.53125 141.484375 C 312.582031 141.308594 312.703125 141.222656 312.882812 141.226562 L 317.917969 141.226562 C 318.101562 141.230469 318.21875 141.316406 318.269531 141.492188 L 319.335938 145.164062 C 321.910156 145.871094 324.136719 147.167969 326.027344 149.050781 L 329.773438 148.0625 C 329.953125 148.019531 330.09375 148.074219 330.1875 148.230469 L 332.746094 152.574219 C 332.839844 152.714844 332.839844 152.855469 332.746094 152.996094 L 330.082031 156.027344 C 330.75 158.59375 330.75 161.164062 330.082031 163.730469 L 332.65625 166.40625 C 332.789062 166.535156 332.808594 166.679688 332.714844 166.839844 L 330.199219 171.210938 C 330.109375 171.363281 329.976562 171.421875 329.804688 171.386719 L 325.96875 170.636719 C 324.101562 172.488281 321.90625 173.769531 319.375 174.476562 L 318.132812 178.234375 C 318.09375 178.425781 317.972656 178.523438 317.777344 178.53125 Z M 313.023438 177.769531 L 317.511719 177.769531 L 318.734375 174.070312 C 318.777344 173.945312 318.863281 173.867188 318.992188 173.835938 C 321.539062 173.15625 323.734375 171.875 325.582031 169.996094 C 325.675781 169.90625 325.789062 169.867188 325.917969 169.886719 L 329.578125 170.65625 L 331.808594 166.710938 L 329.28125 164.085938 C 329.1875 163.984375 329.160156 163.867188 329.191406 163.730469 C 329.902344 161.164062 329.902344 158.59375 329.191406 156.027344 C 329.160156 155.894531 329.191406 155.78125 329.28125 155.679688 L 331.886719 152.722656 L 329.648438 148.933594 L 325.96875 149.917969 C 325.832031 149.949219 325.710938 149.917969 325.613281 149.820312 C 323.742188 147.898438 321.507812 146.601562 318.914062 145.921875 C 318.773438 145.890625 318.683594 145.804688 318.644531 145.667969 L 317.589844 142.027344 L 313.101562 142.027344 L 311.917969 145.636719 C 311.875 145.761719 311.789062 145.84375 311.660156 145.875 C 309.058594 146.539062 306.816406 147.835938 304.941406 149.761719 C 304.839844 149.855469 304.722656 149.886719 304.585938 149.859375 L 300.996094 148.933594 L 298.707031 152.800781 L 301.242188 155.679688 C 301.339844 155.78125 301.363281 155.894531 301.320312 156.027344 C 300.613281 158.625 300.613281 161.222656 301.320312 163.820312 C 301.359375 163.957031 301.332031 164.074219 301.234375 164.175781 L 298.707031 166.800781 L 300.9375 170.746094 L 304.597656 169.976562 C 304.730469 169.957031 304.84375 169.992188 304.941406 170.085938 C 306.832031 172.011719 309.082031 173.304688 311.699219 173.960938 C 311.832031 174.003906 311.921875 174.085938 311.96875 174.21875 Z M 315.3125 168.457031 C 314.746094 168.457031 314.183594 168.402344 313.628906 168.292969 C 313.074219 168.179688 312.535156 168.019531 312.011719 167.800781 C 311.488281 167.585938 310.992188 167.320312 310.519531 167.003906 C 310.050781 166.691406 309.613281 166.332031 309.210938 165.933594 C 308.8125 165.535156 308.453125 165.097656 308.136719 164.628906 C 307.824219 164.15625 307.558594 163.660156 307.339844 163.136719 C 307.121094 162.613281 306.957031 162.074219 306.847656 161.519531 C 306.734375 160.964844 306.679688 160.402344 306.679688 159.835938 C 306.679688 159.269531 306.734375 158.710938 306.84375 158.15625 C 306.953125 157.597656 307.113281 157.058594 307.328125 156.535156 C 307.546875 156.011719 307.808594 155.515625 308.125 155.042969 C 308.4375 154.570312 308.792969 154.136719 309.195312 153.734375 C 309.59375 153.332031 310.027344 152.972656 310.5 152.660156 C 310.96875 152.34375 311.464844 152.074219 311.988281 151.859375 C 312.507812 151.640625 313.046875 151.476562 313.605469 151.363281 C 314.160156 151.25 314.71875 151.195312 315.285156 151.191406 C 315.851562 151.191406 316.414062 151.242188 316.96875 151.351562 C 317.523438 151.460938 318.0625 151.621094 318.589844 151.835938 C 319.113281 152.050781 319.609375 152.316406 320.082031 152.628906 C 320.554688 152.941406 320.992188 153.296875 321.394531 153.695312 C 321.792969 154.097656 322.152344 154.53125 322.46875 155 C 322.785156 155.46875 323.054688 155.964844 323.273438 156.488281 C 323.492188 157.011719 323.660156 157.546875 323.769531 158.101562 C 323.882812 158.660156 323.941406 159.21875 323.945312 159.785156 C 323.945312 160.351562 323.890625 160.914062 323.78125 161.472656 C 323.671875 162.03125 323.507812 162.570312 323.292969 163.097656 C 323.078125 163.621094 322.8125 164.121094 322.496094 164.59375 C 322.183594 165.066406 321.824219 165.503906 321.421875 165.90625 C 321.023438 166.308594 320.585938 166.667969 320.113281 166.984375 C 319.644531 167.300781 319.144531 167.566406 318.621094 167.785156 C 318.097656 168.003906 317.554688 168.167969 317 168.277344 C 316.441406 168.390625 315.878906 168.445312 315.3125 168.449219 Z M 315.3125 151.941406 C 314.792969 151.941406 314.28125 151.992188 313.773438 152.09375 C 313.261719 152.195312 312.769531 152.34375 312.292969 152.542969 C 311.8125 152.742188 311.359375 152.984375 310.925781 153.273438 C 310.496094 153.558594 310.097656 153.886719 309.730469 154.253906 C 309.363281 154.621094 309.035156 155.019531 308.75 155.449219 C 308.460938 155.878906 308.21875 156.335938 308.019531 156.8125 C 307.820312 157.292969 307.671875 157.785156 307.570312 158.292969 C 307.46875 158.804688 307.417969 159.316406 307.417969 159.835938 C 307.417969 160.351562 307.46875 160.867188 307.570312 161.375 C 307.671875 161.882812 307.820312 162.375 308.019531 162.855469 C 308.21875 163.332031 308.460938 163.789062 308.75 164.21875 C 309.035156 164.648438 309.363281 165.050781 309.730469 165.414062 C 310.097656 165.78125 310.496094 166.109375 310.925781 166.398438 C 311.359375 166.683594 311.8125 166.929688 312.292969 167.125 C 312.769531 167.324219 313.261719 167.472656 313.773438 167.574219 C 314.28125 167.675781 314.792969 167.726562 315.3125 167.726562 C 315.828125 167.726562 316.34375 167.675781 316.851562 167.574219 C 317.359375 167.472656 317.851562 167.324219 318.332031 167.125 C 318.8125 166.929688 319.265625 166.683594 319.695312 166.398438 C 320.128906 166.109375 320.527344 165.78125 320.894531 165.414062 C 321.257812 165.050781 321.585938 164.648438 321.875 164.21875 C 322.164062 163.789062 322.40625 163.332031 322.605469 162.855469 C 322.800781 162.375 322.953125 161.882812 323.054688 161.375 C 323.152344 160.867188 323.203125 160.351562 323.203125 159.835938 C 323.207031 159.3125 323.160156 158.796875 323.0625 158.289062 C 322.960938 157.777344 322.816406 157.28125 322.617188 156.800781 C 322.421875 156.316406 322.179688 155.859375 321.890625 155.425781 C 321.605469 154.992188 321.277344 154.589844 320.910156 154.222656 C 320.542969 153.851562 320.144531 153.523438 319.710938 153.234375 C 319.28125 152.941406 318.824219 152.699219 318.34375 152.496094 C 317.863281 152.296875 317.367188 152.148438 316.859375 152.046875 C 316.347656 151.941406 315.832031 151.890625 315.3125 151.890625 Z M 315.3125 151.941406 " fill-opacity="1" fill-rule="nonzero"/></g><path fill="#ffffff" d="M 310.386719 220.183594 L 305.0625 270.382812 L 306.460938 343.558594 L 288.238281 343.558594 L 281.511719 268.695312 C 281.511719 268.695312 284.3125 219.070312 284.3125 218.230469 Z M 310.386719 220.183594 " fill-opacity="1" fill-rule="nonzero"/><path fill="#000000" d="M 306.460938 343.933594 L 288.238281 343.933594 C 288.144531 343.933594 288.058594 343.902344 287.988281 343.835938 C 287.914062 343.773438 287.875 343.691406 287.863281 343.597656 L 281.136719 268.734375 C 281.136719 268.183594 283.9375 219.050781 283.9375 218.230469 C 283.945312 218.140625 283.984375 218.058594 284.046875 217.992188 C 284.128906 217.917969 284.222656 217.886719 284.332031 217.894531 L 310.410156 219.867188 C 310.507812 219.878906 310.59375 219.921875 310.664062 219.996094 C 310.726562 220.078125 310.753906 220.171875 310.742188 220.273438 L 305.417969 270.46875 L 306.828125 343.605469 C 306.824219 343.710938 306.789062 343.796875 306.71875 343.871094 C 306.640625 343.921875 306.554688 343.945312 306.460938 343.933594 Z M 288.574219 343.191406 L 306.085938 343.191406 L 304.6875 270.382812 L 309.984375 220.53125 L 284.667969 218.625 C 284.441406 223.3125 281.984375 266.78125 281.875 268.714844 Z M 288.574219 343.191406 " fill-opacity="1" fill-rule="nonzero"/><path fill="#a6a6a6" d="M 250.945312 231.144531 L 263.566406 231.144531 L 263.566406 244.839844 L 250.945312 244.839844 Z M 250.945312 231.144531 " fill-opacity="1" fill-rule="nonzero"/><path fill="#a6a6a6" d="M 204.546875 187.183594 L 217.164062 187.183594 L 217.164062 200.007812 L 204.546875 200.007812 Z M 204.546875 187.183594 " fill-opacity="1" fill-rule="nonzero"/><path fill="#ffffff" d="M 258.394531 260.417969 L 271.015625 219.375 L 299.792969 219.375 L 251.648438 343.417969 L 233.136719 343.417969 Z M 258.394531 260.417969 " fill-opacity="1" fill-rule="nonzero"/><path fill="#000000" d="M 251.648438 343.792969 L 233.136719 343.792969 C 233.015625 343.792969 232.917969 343.742188 232.84375 343.644531 C 232.75 343.542969 232.714844 343.425781 232.742188 343.289062 L 257.980469 260.300781 L 270.597656 219.257812 C 270.65625 219.085938 270.773438 219 270.953125 219 L 299.734375 219 C 299.863281 219 299.964844 219.054688 300.039062 219.15625 C 300.09375 219.273438 300.09375 219.386719 300.039062 219.503906 L 251.992188 343.558594 C 251.929688 343.710938 251.8125 343.789062 251.648438 343.792969 Z M 233.640625 343.054688 L 251.402344 343.054688 L 299.238281 219.730469 L 271.269531 219.730469 L 258.730469 260.507812 Z M 233.640625 343.054688 " fill-opacity="1" fill-rule="nonzero"/><path fill="#ffffff" d="M 244.523438 212.390625 L 244.472656 212.695312 C 244.265625 214.066406 242.292969 226.0625 237.066406 226.210938 L 237.007812 226.210938 C 231.894531 226.210938 214.5625 208.53125 211.859375 205.742188 L 205.121094 205.742188 L 196.238281 195.085938 L 196.546875 194.71875 C 197.128906 194.082031 197.847656 193.726562 198.707031 193.65625 C 199.40625 193.636719 200.023438 193.851562 200.5625 194.296875 C 200.886719 194.003906 201.261719 193.816406 201.6875 193.722656 C 202.699219 193.558594 203.628906 193.773438 204.46875 194.363281 C 204.707031 194.191406 204.96875 194.074219 205.257812 194.019531 C 206.292969 193.917969 207.195312 194.214844 207.960938 194.917969 L 208.058594 194.988281 L 208.988281 196.613281 C 209.613281 196.414062 210.199219 196.496094 210.742188 196.859375 C 211.347656 197.304688 211.882812 197.820312 212.351562 198.410156 C 213.574219 198.273438 217.746094 197.964844 220.085938 200.304688 C 222.1875 202.40625 230.296875 209.714844 232.785156 211.957031 L 234.46875 203.558594 Z M 244.523438 212.390625 " fill-opacity="1" fill-rule="nonzero"/><path fill="#000000" d="M 237.074219 226.578125 C 231.847656 226.578125 215.273438 209.804688 211.699219 206.117188 L 205.121094 206.117188 C 205.003906 206.113281 204.90625 206.066406 204.832031 205.976562 L 195.953125 195.320312 C 195.816406 195.160156 195.816406 195 195.953125 194.839844 L 196.269531 194.484375 C 196.914062 193.757812 197.71875 193.359375 198.6875 193.289062 C 199.367188 193.261719 199.992188 193.445312 200.550781 193.832031 C 200.871094 193.605469 201.222656 193.445312 201.605469 193.359375 C 202.632812 193.171875 203.582031 193.363281 204.457031 193.929688 C 204.6875 193.796875 204.929688 193.703125 205.1875 193.65625 C 205.730469 193.601562 206.257812 193.664062 206.773438 193.835938 C 207.289062 194.007812 207.746094 194.273438 208.148438 194.640625 L 208.238281 194.710938 C 208.28125 194.742188 208.3125 194.78125 208.335938 194.828125 L 209.136719 196.210938 C 209.777344 196.089844 210.367188 196.210938 210.910156 196.574219 C 211.496094 196.996094 212.015625 197.484375 212.46875 198.046875 C 213.941406 197.898438 217.976562 197.730469 220.304688 200.019531 C 222.324219 201.992188 230.019531 208.988281 232.515625 211.226562 L 234.066406 203.472656 C 234.09375 203.328125 234.175781 203.238281 234.3125 203.195312 C 234.445312 203.152344 234.5625 203.171875 234.667969 203.265625 L 244.742188 212.144531 C 244.847656 212.230469 244.890625 212.34375 244.871094 212.480469 L 244.820312 212.785156 C 244.496094 215.035156 242.480469 226.429688 237.074219 226.578125 Z M 205.277344 205.375 L 211.859375 205.375 C 211.960938 205.375 212.050781 205.410156 212.125 205.484375 C 221.21875 214.875 233.1875 225.847656 237.007812 225.847656 C 241.050781 225.730469 243.371094 217.492188 244.109375 212.636719 L 244.109375 212.539062 L 234.71875 204.261719 L 233.128906 212.074219 C 233.101562 212.214844 233.019531 212.308594 232.882812 212.351562 C 232.746094 212.390625 232.625 212.367188 232.515625 212.273438 C 230.082031 210.070312 221.941406 202.742188 219.800781 200.601562 C 217.660156 198.460938 213.566406 198.6875 212.378906 198.824219 C 212.242188 198.84375 212.128906 198.796875 212.046875 198.6875 C 211.601562 198.128906 211.09375 197.636719 210.515625 197.214844 C 210.070312 196.914062 209.589844 196.84375 209.074219 197.007812 C 208.886719 197.066406 208.742188 197.011719 208.640625 196.839844 L 207.722656 195.253906 C 207.039062 194.625 206.234375 194.347656 205.308594 194.425781 C 205.074219 194.464844 204.863281 194.554688 204.675781 194.699219 C 204.535156 194.796875 204.394531 194.796875 204.25 194.699219 C 203.496094 194.164062 202.660156 193.960938 201.746094 194.097656 C 201.371094 194.175781 201.042969 194.339844 200.757812 194.59375 C 200.605469 194.726562 200.449219 194.726562 200.296875 194.59375 C 199.824219 194.199219 199.28125 194.011719 198.667969 194.03125 C 197.90625 194.105469 197.277344 194.433594 196.78125 195.015625 L 196.675781 195.132812 Z M 205.277344 205.375 " fill-opacity="1" fill-rule="nonzero"/><path fill="#a6a6a6" d="M 310.527344 219.492188 C 294.199219 240.605469 268.320312 228.667969 268.320312 228.667969 L 248.984375 204.765625 L 244.21875 213.730469 L 232.160156 208.964844 L 235.386719 194.808594 C 235.574219 193.929688 235.855469 193.078125 236.230469 192.261719 C 236.605469 191.445312 237.0625 190.675781 237.609375 189.960938 C 238.152344 189.246094 238.769531 188.597656 239.460938 188.019531 C 240.148438 187.441406 240.894531 186.945312 241.691406 186.53125 L 258.9375 180.789062 C 269.316406 180.238281 274.921875 183.316406 274.921875 183.316406 C 275.492188 183.839844 288.152344 191.59375 288.152344 191.59375 L 286.175781 195.539062 C 296.054688 205.59375 310.527344 219.492188 310.527344 219.492188 Z M 310.527344 219.492188 " fill-opacity="1" fill-rule="nonzero"/><path fill="#ffffff" d="M 258.257812 183.15625 L 258.257812 183.277344 L 258.1875 183.382812 C 257.65625 184.203125 257 184.910156 256.222656 185.507812 C 255.445312 186.101562 254.589844 186.546875 253.660156 186.847656 C 252.460938 187.125 251.25 187.253906 250.019531 187.242188 C 249.308594 187.246094 248.601562 187.210938 247.898438 187.132812 L 247.5625 187.132812 L 245.648438 182.199219 C 242.867188 183.335938 240.480469 183.257812 238.546875 181.972656 C 232.910156 178.234375 233.226562 165.566406 233.238281 165.035156 L 233.238281 164.648438 L 250.503906 158.441406 L 252.8125 165.929688 C 253.300781 165.796875 253.792969 165.800781 254.28125 165.945312 C 254.769531 166.089844 255.183594 166.351562 255.523438 166.730469 C 256.855469 168.515625 255.019531 172.402344 254.46875 173.488281 C 258.304688 182.761719 258.285156 182.96875 258.257812 183.15625 Z M 258.257812 183.15625 " fill-opacity="1" fill-rule="nonzero"/><path fill="#000000" d="M 250.007812 187.605469 C 249.289062 187.609375 248.566406 187.574219 247.847656 187.5 L 247.511719 187.5 C 247.363281 187.488281 247.261719 187.410156 247.207031 187.273438 L 245.429688 182.734375 C 242.679688 183.71875 240.292969 183.632812 238.328125 182.328125 C 232.515625 178.472656 232.84375 165.617188 232.863281 165.074219 L 232.863281 164.6875 C 232.871094 164.523438 232.953125 164.410156 233.109375 164.351562 L 250.363281 158.136719 C 250.460938 158.097656 250.554688 158.097656 250.652344 158.136719 C 250.746094 158.1875 250.808594 158.261719 250.839844 158.363281 L 253.058594 165.558594 C 253.570312 165.460938 254.070312 165.503906 254.5625 165.679688 C 255.054688 165.855469 255.464844 166.144531 255.800781 166.542969 C 257.164062 168.367188 255.664062 171.929688 254.8125 173.539062 C 258.640625 182.753906 258.613281 182.941406 258.574219 183.238281 L 258.574219 183.355469 C 258.566406 183.410156 258.546875 183.457031 258.515625 183.503906 L 258.453125 183.609375 C 257.898438 184.472656 257.214844 185.214844 256.398438 185.835938 C 255.582031 186.457031 254.6875 186.921875 253.710938 187.230469 C 252.492188 187.507812 251.257812 187.632812 250.007812 187.605469 Z M 247.820312 186.75 L 247.925781 186.75 C 248.085938 186.75 248.914062 186.847656 250.007812 186.847656 C 251.210938 186.867188 252.394531 186.738281 253.5625 186.460938 C 255.386719 185.875 256.820312 184.773438 257.863281 183.167969 L 257.863281 183.089844 C 257.863281 182.773438 256.679688 179.851562 254.082031 173.617188 C 254.039062 173.511719 254.039062 173.40625 254.082031 173.300781 C 255.238281 171.0625 256.125 168.210938 255.179688 166.9375 C 254.878906 166.617188 254.511719 166.394531 254.085938 166.277344 C 253.664062 166.15625 253.238281 166.15625 252.8125 166.277344 C 252.722656 166.292969 252.636719 166.277344 252.558594 166.226562 C 252.480469 166.179688 252.429688 166.109375 252.40625 166.019531 L 250.214844 158.898438 L 233.5625 164.90625 L 233.5625 165.035156 C 233.5625 165.558594 233.226562 178.015625 238.703125 181.65625 C 240.527344 182.871094 242.808594 182.941406 245.460938 181.855469 C 245.554688 181.816406 245.652344 181.816406 245.746094 181.855469 C 245.839844 181.898438 245.90625 181.964844 245.945312 182.0625 Z M 258.238281 183.277344 Z M 258.238281 183.277344 " fill-opacity="1" fill-rule="nonzero"/><path fill="#000000" d="M 255.9375 169.886719 C 255.277344 166.789062 251.171875 167.707031 250.5625 170.292969 C 249.949219 172.878906 248.09375 172.898438 248.09375 172.898438 C 247.058594 170.890625 246.171875 168.816406 245.441406 166.679688 C 244.703125 164.183594 242.925781 165.558594 242.925781 165.558594 C 240.953125 168.230469 238.980469 169.109375 237.300781 169.265625 C 236.816406 169.300781 236.339844 169.269531 235.863281 169.164062 C 235.390625 169.058594 234.941406 168.890625 234.515625 168.65625 C 234.089844 168.421875 233.710938 168.128906 233.367188 167.785156 C 233.027344 167.4375 232.746094 167.050781 232.515625 166.621094 C 229.082031 160.386719 236.523438 155.839844 239.808594 154.78125 C 242.382812 153.933594 248.46875 152.878906 252.980469 156.214844 C 259.835938 161.234375 255.9375 169.886719 255.9375 169.886719 Z M 255.9375 169.886719 " fill-opacity="1" fill-rule="nonzero"/><path fill="#a36357" d="M 55.996094 350.089844 L 54.28125 350.089844 L 53.292969 356.164062 L 28.628906 353.925781 L 35.917969 347.472656 L 38.386719 347.296875 L 38.140625 345.667969 L 52.039062 339.195312 L 57.554688 344.433594 Z M 55.996094 350.089844 " fill-opacity="1" fill-rule="nonzero"/><path fill="#000000" d="M 40.644531 347.484375 C 40.644531 347.484375 33.1875 347.484375 31.972656 354.125 L 15.535156 357.003906 C 15.378906 357.03125 15.226562 357.007812 15.085938 356.933594 C 14.941406 356.859375 14.839844 356.746094 14.773438 356.597656 C 14.707031 356.453125 14.695312 356.300781 14.734375 356.144531 C 14.773438 355.988281 14.855469 355.859375 14.984375 355.761719 L 35.703125 339.859375 C 35.855469 339.738281 36.03125 339.660156 36.222656 339.621094 C 36.414062 339.582031 36.601562 339.589844 36.792969 339.636719 C 36.980469 339.6875 37.148438 339.777344 37.292969 339.90625 C 37.441406 340.035156 37.550781 340.191406 37.625 340.371094 Z M 40.644531 347.484375 " fill-opacity="1" fill-rule="nonzero"/><path fill="#a6a6a6" d="M 163.554688 280.859375 L 151.25 283.660156 L 148.507812 271.65625 L 160.8125 268.851562 Z M 163.554688 280.859375 " fill-opacity="1" fill-rule="nonzero"/><path fill="#a36357" d="M 153.914062 283.730469 L 154.042969 284.34375 L 140.992188 285.507812 L 109.964844 308.117188 C 109.476562 308.472656 108.945312 308.730469 108.367188 308.898438 C 107.789062 309.0625 107.199219 309.125 106.601562 309.085938 C 106 309.042969 105.425781 308.898438 104.875 308.65625 C 104.328125 308.414062 103.835938 308.082031 103.402344 307.664062 L 89.746094 294.484375 L 100.382812 284.460938 L 109.726562 293.804688 L 134.222656 280.308594 L 138.851562 275.046875 C 139.898438 273.859375 141.171875 272.996094 142.667969 272.464844 L 154.0625 268.417969 L 153.925781 269.347656 C 153.785156 269.980469 153.554688 270.578125 153.230469 271.144531 C 152.90625 271.707031 152.507812 272.207031 152.03125 272.648438 C 151.554688 273.089844 151.019531 273.449219 150.433594 273.726562 C 149.847656 274.003906 149.230469 274.1875 148.589844 274.277344 L 145.460938 277.148438 C 145.269531 277.878906 145.382812 278.5625 145.796875 279.191406 C 146.417969 280.039062 147.769531 280.496094 149.742188 280.496094 C 150.222656 280.484375 150.691406 280.554688 151.148438 280.707031 C 151.601562 280.859375 152.019531 281.082031 152.402344 281.375 C 152.78125 281.667969 153.101562 282.019531 153.359375 282.421875 C 153.621094 282.828125 153.804688 283.261719 153.914062 283.730469 Z M 153.914062 283.730469 " fill-opacity="1" fill-rule="nonzero"/><path fill="#ffffff" d="M 74.296875 314.117188 C 74.296875 314.117188 109.65625 324.277344 122.9375 339.414062 C 125.796875 342.667969 123.648438 351.410156 117.480469 351.410156 L 63.367188 347.769531 Z M 74.296875 314.117188 " fill-opacity="1" fill-rule="nonzero"/><path fill="#000000" d="M 117.480469 351.785156 L 63.335938 348.136719 C 63.21875 348.125 63.128906 348.074219 63.058594 347.976562 C 63.003906 347.867188 63.003906 347.761719 63.058594 347.652344 L 73.902344 314.007812 C 73.9375 313.914062 73.996094 313.84375 74.082031 313.796875 C 74.167969 313.75 74.261719 313.738281 74.355469 313.761719 C 74.710938 313.871094 109.972656 324.132812 123.171875 339.167969 C 124.78125 340.992188 124.96875 344.464844 123.628906 347.425781 C 123.390625 348.050781 123.066406 348.632812 122.65625 349.164062 C 122.246094 349.691406 121.765625 350.152344 121.21875 350.542969 C 120.671875 350.929688 120.078125 351.230469 119.441406 351.441406 C 118.804688 351.652344 118.152344 351.769531 117.480469 351.785156 Z M 63.859375 347.433594 L 117.5 351.046875 C 118.101562 351.027344 118.691406 350.921875 119.261719 350.730469 C 119.832031 350.535156 120.363281 350.265625 120.851562 349.914062 C 121.339844 349.5625 121.769531 349.144531 122.132812 348.664062 C 122.5 348.1875 122.785156 347.664062 122.996094 347.097656 C 124.199219 344.433594 124.0625 341.230469 122.660156 339.640625 C 110.296875 325.53125 78.214844 315.667969 74.535156 314.582031 Z M 63.859375 347.433594 " fill-opacity="1" fill-rule="nonzero"/><path fill="#a6a6a6" d="M 104.191406 286.859375 L 93.722656 301.519531 L 87.390625 295.441406 L 85.742188 318.871094 L 45.449219 319.742188 L 50.640625 304.8125 L 40.242188 297.503906 L 44.957031 286.414062 L 42.628906 285.535156 L 50.570312 272.15625 C 51.3125 270.898438 52.289062 269.859375 53.496094 269.039062 C 54.707031 268.21875 56.03125 267.695312 57.476562 267.472656 L 72.917969 264.996094 L 73.113281 265.332031 C 73.113281 265.390625 76.074219 270.449219 79.722656 270.824219 C 81.300781 270.984375 82.820312 270.242188 84.261719 268.605469 L 84.648438 268.171875 L 95.714844 278.667969 Z M 104.191406 286.859375 " fill-opacity="1" fill-rule="nonzero"/><path fill="#ffffff" d="M 64.203125 317.480469 C 76.863281 318.328125 107.941406 335.714844 112.714844 343.289062 C 113.675781 344.746094 114.34375 346.320312 114.722656 348.019531 C 115.101562 349.722656 115.167969 351.433594 114.914062 353.15625 C 114.820312 353.742188 114.628906 354.292969 114.339844 354.804688 C 114.046875 355.320312 113.675781 355.769531 113.222656 356.152344 C 112.769531 356.53125 112.265625 356.824219 111.707031 357.023438 C 111.148438 357.222656 110.574219 357.316406 109.984375 357.308594 L 48.25 357.308594 C 46.851562 352.546875 49.929688 343.566406 49.929688 343.566406 C 31.984375 334.597656 46.96875 316.78125 46.96875 316.78125 Z M 64.203125 317.480469 " fill-opacity="1" fill-rule="nonzero"/><path fill="#000000" d="M 110.023438 357.675781 L 48.25 357.675781 C 48.066406 357.675781 47.945312 357.589844 47.898438 357.410156 C 46.605469 353.027344 48.941406 345.390625 49.484375 343.746094 C 44.710938 341.289062 41.859375 337.964844 41.011719 333.878906 C 39.285156 325.492188 46.398438 316.910156 46.703125 316.554688 C 46.777344 316.457031 46.875 316.410156 47 316.417969 L 64.246094 317.136719 C 76.863281 317.976562 108.304688 335.554688 113.050781 343.101562 C 114.019531 344.589844 114.695312 346.195312 115.082031 347.925781 C 115.464844 349.65625 115.53125 351.402344 115.28125 353.15625 C 115.183594 353.785156 114.980469 354.378906 114.671875 354.933594 C 114.363281 355.488281 113.96875 355.972656 113.488281 356.386719 C 113.003906 356.800781 112.464844 357.121094 111.871094 357.34375 C 111.273438 357.5625 110.65625 357.675781 110.023438 357.675781 Z M 48.507812 356.933594 L 110.023438 356.933594 C 110.566406 356.933594 111.09375 356.839844 111.605469 356.652344 C 112.117188 356.464844 112.578125 356.195312 112.992188 355.84375 C 113.410156 355.492188 113.75 355.078125 114.015625 354.605469 C 114.285156 354.128906 114.460938 353.625 114.550781 353.085938 C 114.789062 351.40625 114.722656 349.738281 114.347656 348.082031 C 113.972656 346.429688 113.316406 344.894531 112.378906 343.476562 C 107.695312 336.03125 76.625 318.683594 64.15625 317.828125 L 47.105469 317.117188 C 46.199219 318.261719 40.140625 326.214844 41.691406 333.679688 C 42.511719 337.628906 45.320312 340.835938 50.046875 343.203125 C 50.242188 343.300781 50.304688 343.449219 50.234375 343.65625 C 50.226562 343.765625 47.335938 352.269531 48.507812 356.933594 Z M 48.507812 356.933594 " fill-opacity="1" fill-rule="nonzero"/><path fill="#a36357" d="M 91.089844 327.503906 C 90.914062 327.671875 90.707031 327.777344 90.464844 327.816406 C 90.226562 327.855469 89.996094 327.824219 89.777344 327.722656 L 71.652344 319.660156 L 40.734375 308.671875 C 40.410156 308.554688 40.097656 308.410156 39.804688 308.230469 C 39.507812 308.050781 39.234375 307.84375 38.980469 307.609375 C 38.726562 307.375 38.5 307.121094 38.300781 306.839844 C 38.097656 306.558594 37.925781 306.261719 37.785156 305.945312 C 37.644531 305.632812 37.535156 305.304688 37.460938 304.96875 C 37.386719 304.632812 37.34375 304.292969 37.339844 303.945312 C 37.332031 303.601562 37.363281 303.261719 37.425781 302.921875 C 37.488281 302.582031 37.585938 302.253906 37.714844 301.933594 L 44.15625 286.070312 L 56.550781 291.308594 L 52.601562 299.890625 L 75.292969 313.585938 L 82.132812 314.621094 C 82.941406 314.746094 83.695312 315.023438 84.394531 315.449219 C 85.09375 315.878906 85.683594 316.421875 86.167969 317.085938 L 89.894531 322.265625 L 91.367188 326.214844 C 91.453125 326.4375 91.46875 326.664062 91.417969 326.898438 C 91.367188 327.132812 91.257812 327.335938 91.089844 327.503906 Z M 91.089844 327.503906 " fill-opacity="1" fill-rule="nonzero"/><path fill="#000000" d="M 434.925781 339.609375 C 435.078125 339.75 435.191406 339.914062 435.265625 340.105469 C 435.339844 340.296875 435.367188 340.492188 435.347656 340.699219 C 435.332031 340.902344 435.265625 341.09375 435.160156 341.265625 C 435.054688 341.441406 434.914062 341.582031 434.738281 341.691406 L 411.574219 356.382812 C 411.429688 356.46875 411.273438 356.503906 411.109375 356.488281 C 410.941406 356.46875 410.796875 356.402344 410.675781 356.289062 C 410.554688 356.171875 410.480469 356.03125 410.453125 355.867188 C 410.429688 355.699219 410.457031 355.542969 410.539062 355.394531 L 419.316406 340.242188 C 426.273438 341.4375 428.996094 334.105469 428.996094 334.105469 Z M 434.925781 339.609375 " fill-opacity="1" fill-rule="nonzero"/><path fill="#000000" d="M 367.089844 191.949219 C 370.125 188.535156 366.632812 182.902344 366.980469 178.371094 C 368.066406 164.195312 382.410156 163.996094 382.410156 163.996094 C 394.917969 165.371094 395.453125 176.359375 395.628906 181.421875 C 395.996094 191.355469 399.960938 193.261719 402.820312 196.644531 C 405.683594 200.027344 408.238281 208.800781 402.308594 213.25 C 388.960938 223.273438 366.980469 220.410156 362.796875 210.910156 C 360.261719 205.167969 361.886719 197.796875 367.089844 191.949219 Z M 367.089844 191.949219 " fill-opacity="1" fill-rule="nonzero"/><path fill="#f4e3e0" d="M 374.636719 199.515625 L 376.027344 191.21875 C 373.273438 190.863281 371.378906 189.707031 370.402344 187.785156 C 367.53125 182.140625 373.660156 171.890625 373.925781 171.457031 L 374.824219 169.957031 L 374.929688 171.703125 C 375.34375 178.609375 385.171875 179.417969 385.269531 179.417969 C 385.816406 179.382812 386.324219 179.5 386.800781 179.765625 C 387.273438 180.03125 387.640625 180.40625 387.894531 180.886719 C 388.761719 182.863281 386.367188 186.175781 385.636719 187.105469 L 388.359375 199.542969 Z M 374.636719 199.515625 " fill-opacity="1" fill-rule="nonzero"/><path fill="#f4e3e0" d="M 372.515625 217.144531 L 357.339844 233.484375 C 356.78125 234.089844 356.121094 234.558594 355.363281 234.890625 C 354.605469 235.222656 353.816406 235.386719 352.988281 235.386719 C 352.777344 235.402344 352.570312 235.402344 352.359375 235.386719 C 351.425781 235.292969 350.566406 234.996094 349.777344 234.496094 C 348.984375 233.992188 348.351562 233.339844 347.871094 232.535156 L 336.128906 212.960938 L 341.753906 209.441406 L 351.992188 222.265625 L 358.050781 212.746094 Z M 372.515625 217.144531 " fill-opacity="1" fill-rule="nonzero"/><path fill="#a6a6a6" d="M 427.792969 330.089844 L 415.09375 337.816406 L 381.71875 289.523438 L 380.496094 284.707031 L 376.617188 295.460938 L 376.964844 318.261719 L 360.015625 321.320312 L 358.445312 291.871094 L 364.878906 245.617188 L 370.234375 244.347656 L 369.25 240.65625 L 392.433594 240.101562 C 398.5 255 399.882812 284.5 399.882812 284.5 Z M 427.792969 330.089844 " fill-opacity="1" fill-rule="nonzero"/><path fill="#ffffff" d="M 398.492188 252.140625 L 398.492188 252.5625 L 398.085938 252.652344 C 397.917969 252.652344 381.460938 256.265625 376.648438 256.925781 C 374.78125 257.175781 372.90625 257.300781 371.023438 257.300781 C 367.414062 257.320312 363.859375 256.890625 360.359375 256.015625 L 359.894531 255.890625 L 365.707031 218.8125 L 355.703125 215.171875 L 362.894531 202.554688 C 363.621094 201.273438 364.636719 200.304688 365.953125 199.644531 C 368.914062 198.132812 371.695312 195.855469 374.507812 194.019531 C 377.367188 199.257812 383.386719 197.394531 387.429688 194.789062 L 387.738281 194.59375 L 388.042969 194.800781 C 400.640625 203.5 398.609375 250.15625 398.492188 252.140625 Z M 398.492188 252.140625 " fill-opacity="1" fill-rule="nonzero"/><path fill="#000000" d="M 371.035156 257.664062 C 367.390625 257.683594 363.804688 257.253906 360.269531 256.371094 L 359.808594 256.242188 C 359.71875 256.21875 359.648438 256.164062 359.597656 256.085938 C 359.546875 256.007812 359.527344 255.921875 359.539062 255.828125 L 365.300781 219.058594 L 355.585938 215.527344 C 355.472656 215.488281 355.398438 215.414062 355.367188 215.300781 C 355.320312 215.199219 355.320312 215.097656 355.367188 214.996094 L 362.558594 202.375 C 363.324219 201.03125 364.394531 200.007812 365.777344 199.308594 C 367.734375 198.25 369.605469 197.050781 371.390625 195.714844 C 372.375 195.046875 373.363281 194.34375 374.289062 193.742188 C 374.390625 193.699219 374.488281 193.699219 374.585938 193.742188 C 374.6875 193.769531 374.769531 193.828125 374.824219 193.921875 C 375.183594 194.652344 375.679688 195.277344 376.308594 195.792969 C 376.9375 196.308594 377.648438 196.671875 378.433594 196.882812 C 381.808594 197.730469 385.703125 195.539062 387.222656 194.5625 L 387.53125 194.363281 C 387.664062 194.273438 387.800781 194.273438 387.933594 194.363281 L 388.242188 194.574219 C 400.996094 203.382812 398.964844 250.246094 398.875 252.238281 L 398.875 252.652344 C 398.867188 252.847656 398.769531 252.960938 398.578125 253 L 398.175781 253.085938 C 398.015625 253.085938 381.503906 256.707031 376.707031 257.367188 C 374.824219 257.59375 372.933594 257.691406 371.035156 257.664062 Z M 360.320312 255.613281 L 360.46875 255.660156 C 363.9375 256.523438 367.460938 256.945312 371.035156 256.925781 C 372.902344 256.929688 374.757812 256.808594 376.609375 256.558594 C 381.375 255.898438 397.851562 252.316406 398.015625 252.289062 L 398.144531 252.289062 L 398.144531 252.148438 C 398.234375 250.175781 400.257812 203.71875 387.824219 195.132812 L 387.726562 195.066406 L 387.636719 195.132812 C 386.03125 196.121094 381.917969 198.46875 378.257812 197.550781 C 377.4375 197.34375 376.6875 196.980469 376.015625 196.464844 C 375.34375 195.953125 374.796875 195.328125 374.378906 194.59375 C 373.53125 195.164062 372.664062 195.777344 371.824219 196.367188 C 370.011719 197.726562 368.113281 198.941406 366.121094 200.019531 C 364.871094 200.652344 363.902344 201.574219 363.210938 202.789062 L 356.234375 215.023438 L 365.824219 218.515625 C 366.015625 218.585938 366.097656 218.71875 366.070312 218.921875 Z M 398.492188 252.523438 Z M 398.492188 252.523438 " fill-opacity="1" fill-rule="nonzero"/><path fill="#a6a6a6" d="M 321.410156 189.5 L 362.53125 189.5 L 362.53125 231.351562 L 321.410156 231.351562 Z M 321.410156 189.5 " fill-opacity="1" fill-rule="nonzero"/><path fill="#f4e3e0" d="M 392.652344 220.597656 L 384.53125 235.871094 C 384.214844 236.46875 383.785156 236.96875 383.246094 237.375 C 382.707031 237.78125 382.105469 238.050781 381.441406 238.1875 C 381.136719 238.25 380.828125 238.285156 380.515625 238.289062 C 379.457031 238.289062 378.511719 237.960938 377.683594 237.300781 L 356.265625 220.144531 L 352.152344 219.265625 L 345.957031 216.167969 L 345.886719 215.980469 C 345.605469 215.40625 345.605469 214.832031 345.886719 214.253906 C 345.960938 214.144531 346.054688 214.050781 346.164062 213.96875 C 345.890625 213.46875 345.828125 212.941406 345.976562 212.390625 C 346.050781 212.195312 346.171875 212.035156 346.339844 211.90625 C 346.289062 211.507812 346.351562 211.128906 346.53125 210.769531 C 346.710938 210.410156 346.976562 210.132812 347.328125 209.933594 C 347.007812 209.488281 346.929688 209.003906 347.097656 208.484375 C 347.238281 208.175781 347.582031 207.820312 348.441406 207.820312 C 348.609375 207.820312 348.894531 207.820312 352.859375 210.269531 L 354.507812 211.019531 L 353.71875 209.707031 C 353.453125 209.613281 353.207031 209.476562 352.988281 209.296875 C 352.765625 209.117188 352.585938 208.90625 352.4375 208.664062 C 352.292969 208.421875 352.191406 208.160156 352.136719 207.882812 C 352.082031 207.601562 352.078125 207.324219 352.121094 207.042969 L 352.238281 206.46875 L 356.1875 207.554688 L 356.292969 207.65625 C 357.871094 209.242188 359.285156 210.960938 360.535156 212.8125 L 360.535156 212.894531 L 361.070312 214.226562 L 376.785156 224.21875 L 381.523438 215.042969 Z M 392.652344 220.597656 " fill-opacity="1" fill-rule="nonzero"/><path fill="#000000" d="M 285.359375 232.425781 C 279.351562 232.378906 273.5625 231.238281 267.984375 229.003906 C 267.902344 228.957031 267.84375 228.886719 267.8125 228.792969 C 267.785156 228.703125 267.789062 228.613281 267.828125 228.523438 C 267.867188 228.4375 267.933594 228.375 268.019531 228.335938 C 268.109375 228.296875 268.199219 228.292969 268.289062 228.324219 C 268.558594 228.453125 295.117188 240.003906 310.171875 219.5625 C 310.234375 219.480469 310.3125 219.433594 310.414062 219.421875 C 310.515625 219.40625 310.605469 219.433594 310.683594 219.492188 C 310.769531 219.550781 310.820312 219.632812 310.835938 219.734375 C 310.851562 219.835938 310.828125 219.925781 310.761719 220.007812 C 303.542969 229.832031 293.753906 232.425781 285.359375 232.425781 Z M 285.359375 232.425781 " fill-opacity="1" fill-rule="nonzero"/><path fill="#ffffff" d="M 304.28125 207.644531 C 304.308594 208.441406 304.179688 209.214844 303.882812 209.957031 C 303.589844 210.699219 303.160156 211.351562 302.59375 211.917969 L 277.140625 237.113281 L 272.90625 242.046875 L 265.417969 247.425781 L 252.398438 247.425781 C 252.121094 247.425781 251.863281 247.359375 251.621094 247.21875 C 251.382812 247.078125 251.199219 246.886719 251.066406 246.644531 C 250.925781 246.40625 250.855469 246.148438 250.855469 245.871094 C 250.855469 245.59375 250.925781 245.335938 251.066406 245.09375 C 251.476562 244.445312 252.058594 244.046875 252.8125 243.890625 L 261.53125 242.144531 L 264.34375 238.632812 L 261.679688 237.183594 C 261.367188 237.019531 261.140625 236.773438 261 236.453125 C 260.855469 236.128906 260.828125 235.796875 260.914062 235.457031 C 261 235.113281 261.183594 234.835938 261.460938 234.621094 C 261.742188 234.40625 262.058594 234.296875 262.410156 234.300781 L 268.476562 234.390625 L 287.65625 208.589844 L 277.503906 201.824219 L 287.164062 191.445312 L 302.210938 203.550781 C 302.824219 204.058594 303.308594 204.671875 303.667969 205.382812 C 304.03125 206.09375 304.234375 206.847656 304.28125 207.644531 Z M 304.28125 207.644531 " fill-opacity="1" fill-rule="nonzero"/><path fill="#000000" d="M 265.429688 247.757812 L 252.398438 247.757812 C 252.054688 247.757812 251.734375 247.667969 251.4375 247.496094 C 251.140625 247.320312 250.910156 247.082031 250.746094 246.777344 C 250.578125 246.476562 250.5 246.15625 250.511719 245.8125 C 250.519531 245.46875 250.617188 245.148438 250.796875 244.859375 C 251.261719 244.121094 251.917969 243.664062 252.773438 243.488281 L 261.355469 241.769531 L 263.820312 238.710938 L 261.542969 237.480469 C 261.152344 237.277344 260.867188 236.972656 260.691406 236.570312 C 260.515625 236.167969 260.488281 235.753906 260.605469 235.328125 C 260.714844 234.90625 260.941406 234.566406 261.285156 234.300781 C 261.628906 234.035156 262.015625 233.90625 262.449219 233.90625 L 268.371094 233.988281 L 287.203125 208.652344 L 277.335938 202.101562 C 277.246094 202.035156 277.1875 201.945312 277.171875 201.832031 C 277.160156 201.722656 277.195312 201.621094 277.269531 201.539062 L 286.9375 191.160156 C 287.007812 191.089844 287.089844 191.058594 287.1875 191.058594 C 287.285156 191.058594 287.371094 191.089844 287.441406 191.160156 L 302.503906 203.195312 C 302.828125 203.46875 303.117188 203.769531 303.375 204.101562 C 303.632812 204.433594 303.851562 204.789062 304.039062 205.167969 C 304.222656 205.546875 304.363281 205.941406 304.46875 206.351562 C 304.570312 206.757812 304.628906 207.171875 304.644531 207.59375 C 304.660156 208.015625 304.632812 208.433594 304.5625 208.847656 C 304.492188 209.261719 304.378906 209.664062 304.226562 210.058594 C 304.070312 210.449219 303.878906 210.820312 303.648438 211.171875 C 303.414062 211.523438 303.148438 211.847656 302.851562 212.144531 L 277.40625 237.339844 L 273.195312 242.246094 L 265.636719 247.691406 C 265.574219 247.734375 265.503906 247.757812 265.429688 247.757812 Z M 262.46875 234.636719 C 262.203125 234.636719 261.964844 234.71875 261.757812 234.878906 C 261.546875 235.039062 261.40625 235.25 261.339844 235.507812 C 261.273438 235.761719 261.289062 236.011719 261.394531 236.257812 C 261.5 236.5 261.667969 236.6875 261.898438 236.816406 L 264.5625 238.269531 C 264.664062 238.320312 264.726562 238.402344 264.75 238.515625 C 264.769531 238.628906 264.742188 238.730469 264.671875 238.820312 L 261.859375 242.34375 C 261.800781 242.414062 261.730469 242.457031 261.640625 242.472656 L 252.917969 244.21875 C 252.285156 244.339844 251.785156 244.667969 251.421875 245.203125 C 251.179688 245.589844 251.167969 245.980469 251.390625 246.378906 C 251.613281 246.777344 251.953125 246.972656 252.40625 246.96875 L 265.300781 246.96875 L 272.699219 241.671875 L 276.875 236.847656 L 302.328125 211.621094 C 302.855469 211.101562 303.253906 210.5 303.527344 209.8125 C 303.804688 209.125 303.929688 208.414062 303.90625 207.675781 C 303.875 206.929688 303.699219 206.222656 303.371094 205.550781 C 303.046875 204.878906 302.597656 204.300781 302.03125 203.816406 L 287.234375 191.976562 L 278.128906 201.714844 L 287.925781 208.246094 C 288.011719 208.304688 288.0625 208.382812 288.082031 208.484375 C 288.101562 208.589844 288.078125 208.683594 288.011719 208.769531 L 268.832031 234.578125 C 268.753906 234.679688 268.652344 234.726562 268.527344 234.726562 Z M 262.46875 234.636719 " fill-opacity="1" fill-rule="nonzero"/><path fill="#000000" d="M 379.597656 359.757812 C 379.6875 360.574219 368.273438 360.742188 364.167969 360.832031 C 360.0625 360.921875 357.09375 361.238281 357.261719 359.382812 C 357.359375 358.148438 360.664062 357.113281 363.347656 356.472656 C 365.859375 355.875 368.257812 354.984375 370.550781 353.796875 L 371.351562 353.382812 C 371.5625 350.019531 371.21875 346.710938 370.324219 343.460938 C 369.429688 340.210938 368.027344 337.191406 366.121094 334.410156 C 361.679688 330.367188 360.003906 321.320312 360.003906 321.320312 L 376.984375 318.191406 C 376.984375 318.191406 377.4375 325.757812 375.808594 331.117188 C 375.5625 333.621094 374.203125 348.164062 375.671875 353.265625 C 375.988281 355.070312 379.539062 359.222656 379.597656 359.757812 Z M 379.597656 359.757812 " fill-opacity="1" fill-rule="nonzero"/></svg>